<mxfile host="Electron" modified="2024-03-25T09:35:20.783Z" agent="Mozilla/5.0 (Macintosh; Intel Mac OS X 10_15_7) AppleWebKit/537.36 (KHTML, like Gecko) draw.io/24.0.4 Chrome/120.0.6099.109 Electron/28.1.0 Safari/537.36" etag="PkzpzQfmuO6xNutqlIJD" version="24.0.4" type="device">
  <diagram name="HA-HANA" id="EQDyIHtIsVo67n5F09d1">
    <mxGraphModel dx="954" dy="-500" grid="1" gridSize="10" guides="1" tooltips="1" connect="1" arrows="1" fold="1" page="1" pageScale="1" pageWidth="850" pageHeight="1100" math="0" shadow="0">
      <root>
        <mxCell id="s6-0-9MNlUgVhO18XEdk-0" />
        <mxCell id="s6-0-9MNlUgVhO18XEdk-1" parent="s6-0-9MNlUgVhO18XEdk-0" />
        <mxCell id="iDJNXH6s6hCmc-ZFNaHm-27" value="" style="rounded=1;whiteSpace=wrap;html=1;strokeColor=#0070F2;fillColor=#EBF8FF;arcSize=32;absoluteArcSize=1;imageWidth=64;imageHeight=64;strokeWidth=1.5;" parent="s6-0-9MNlUgVhO18XEdk-1" vertex="1">
          <mxGeometry x="394" y="1366" width="310" height="274" as="geometry" />
        </mxCell>
        <mxCell id="iDJNXH6s6hCmc-ZFNaHm-28" value="" style="rounded=1;whiteSpace=wrap;html=1;strokeColor=#0070F2;strokeWidth=1.5;arcSize=16;fillColor=#FFFFFF;perimeterSpacing=0;absoluteArcSize=1;" parent="s6-0-9MNlUgVhO18XEdk-1" vertex="1">
          <mxGeometry x="409" y="1412" width="280" height="210" as="geometry" />
        </mxCell>
        <mxCell id="iDJNXH6s6hCmc-ZFNaHm-29" value="&lt;font size=&quot;1&quot; face=&quot;arial&quot; style=&quot;&quot;&gt;&lt;b style=&quot;font-size: 13px;&quot;&gt;Subaccount - Azure EU20&lt;/b&gt;&lt;/font&gt;" style="text;html=1;align=left;verticalAlign=middle;resizable=0;points=[];autosize=1;strokeColor=none;fillColor=none;fontSize=12;fontColor=#1d2d3e;fontFamily=Helvetica;" parent="s6-0-9MNlUgVhO18XEdk-1" vertex="1">
          <mxGeometry x="418.9974074074074" y="1414" width="180" height="30" as="geometry" />
        </mxCell>
        <mxCell id="iDJNXH6s6hCmc-ZFNaHm-5" value="" style="rounded=1;whiteSpace=wrap;html=1;strokeColor=#0070F2;fillColor=#EBF8FF;arcSize=32;absoluteArcSize=1;imageWidth=64;imageHeight=64;strokeWidth=1.5;" parent="s6-0-9MNlUgVhO18XEdk-1" vertex="1">
          <mxGeometry x="30" y="1366" width="310" height="274" as="geometry" />
        </mxCell>
        <mxCell id="iDJNXH6s6hCmc-ZFNaHm-6" value="" style="rounded=1;whiteSpace=wrap;html=1;strokeColor=#0070F2;strokeWidth=1.5;arcSize=16;fillColor=#FFFFFF;perimeterSpacing=0;absoluteArcSize=1;" parent="s6-0-9MNlUgVhO18XEdk-1" vertex="1">
          <mxGeometry x="50" y="1410" width="280" height="210" as="geometry" />
        </mxCell>
        <mxCell id="s6-0-9MNlUgVhO18XEdk-2" value="User" style="text;html=1;strokeColor=none;fillColor=none;align=center;verticalAlign=middle;whiteSpace=wrap;rounded=0;fontStyle=1" parent="s6-0-9MNlUgVhO18XEdk-1" vertex="1">
          <mxGeometry x="344" y="1250" width="60" height="20" as="geometry" />
        </mxCell>
        <mxCell id="s6-0-9MNlUgVhO18XEdk-17" value="" style="sketch=0;outlineConnect=0;fontColor=#232F3E;gradientColor=none;fillColor=#232F3D;strokeColor=none;dashed=0;verticalLabelPosition=bottom;verticalAlign=top;align=center;html=1;fontSize=12;fontStyle=0;aspect=fixed;pointerEvents=1;shape=mxgraph.aws4.user;dashPattern=1 1;labelBackgroundColor=none;fillStyle=auto;" parent="s6-0-9MNlUgVhO18XEdk-1" vertex="1">
          <mxGeometry x="354" y="1210" width="40" height="40" as="geometry" />
        </mxCell>
        <mxCell id="s6-0-9MNlUgVhO18XEdk-19" style="edgeStyle=orthogonalEdgeStyle;rounded=0;orthogonalLoop=1;jettySize=auto;html=1;fontSize=7;fontColor=#004C99;fillColor=#0050ef;strokeColor=#000000;entryX=0.309;entryY=-0.216;entryDx=0;entryDy=0;dashed=1;entryPerimeter=0;" parent="s6-0-9MNlUgVhO18XEdk-1" target="s6-0-9MNlUgVhO18XEdk-39" edge="1">
          <mxGeometry relative="1" as="geometry">
            <mxPoint x="239" y="1320" as="sourcePoint" />
            <mxPoint x="238.25" y="1443" as="targetPoint" />
            <Array as="points">
              <mxPoint x="240" y="1321" />
              <mxPoint x="239" y="1321" />
            </Array>
          </mxGeometry>
        </mxCell>
        <mxCell id="s6-0-9MNlUgVhO18XEdk-20" style="edgeStyle=orthogonalEdgeStyle;rounded=0;orthogonalLoop=1;jettySize=auto;html=1;fontSize=7;fontColor=#004C99;fillColor=#0050ef;strokeColor=#000000;dashed=1;" parent="s6-0-9MNlUgVhO18XEdk-1" edge="1">
          <mxGeometry relative="1" as="geometry">
            <mxPoint x="479" y="1318" as="sourcePoint" />
            <mxPoint x="479" y="1480" as="targetPoint" />
            <Array as="points">
              <mxPoint x="479" y="1318" />
              <mxPoint x="479" y="1318" />
            </Array>
          </mxGeometry>
        </mxCell>
        <mxCell id="s6-0-9MNlUgVhO18XEdk-21" style="edgeStyle=orthogonalEdgeStyle;rounded=0;orthogonalLoop=1;jettySize=auto;html=1;entryX=0.5;entryY=0;entryDx=0;entryDy=0;entryPerimeter=0;" parent="s6-0-9MNlUgVhO18XEdk-1" target="iDJNXH6s6hCmc-ZFNaHm-15" edge="1">
          <mxGeometry relative="1" as="geometry">
            <mxPoint x="390" y="1320" as="sourcePoint" />
            <mxPoint x="609" y="1460" as="targetPoint" />
          </mxGeometry>
        </mxCell>
        <mxCell id="s6-0-9MNlUgVhO18XEdk-22" value="" style="edgeStyle=orthogonalEdgeStyle;rounded=0;orthogonalLoop=1;jettySize=auto;html=1;startArrow=none;exitX=0.5;exitY=1;exitDx=0;exitDy=0;" parent="s6-0-9MNlUgVhO18XEdk-1" edge="1">
          <mxGeometry relative="1" as="geometry">
            <mxPoint x="375" y="1270" as="sourcePoint" />
            <mxPoint x="375" y="1300" as="targetPoint" />
          </mxGeometry>
        </mxCell>
        <mxCell id="s6-0-9MNlUgVhO18XEdk-26" style="edgeStyle=orthogonalEdgeStyle;rounded=0;orthogonalLoop=1;jettySize=auto;html=1;entryX=0.5;entryY=0;entryDx=0;entryDy=0;entryPerimeter=0;" parent="s6-0-9MNlUgVhO18XEdk-1" target="iDJNXH6s6hCmc-ZFNaHm-9" edge="1">
          <mxGeometry relative="1" as="geometry">
            <mxPoint x="360" y="1320" as="sourcePoint" />
            <mxPoint x="141" y="1460" as="targetPoint" />
          </mxGeometry>
        </mxCell>
        <mxCell id="s6-0-9MNlUgVhO18XEdk-34" value="" style="rounded=0;whiteSpace=wrap;html=1;fillColor=default;strokeColor=none;" parent="s6-0-9MNlUgVhO18XEdk-1" vertex="1">
          <mxGeometry x="81" y="1432" width="13" height="10" as="geometry" />
        </mxCell>
        <mxCell id="s6-0-9MNlUgVhO18XEdk-36" value="" style="shape=image;verticalLabelPosition=bottom;labelBackgroundColor=default;verticalAlign=top;aspect=fixed;imageAspect=0;image=data:image/png,iVBORw0KGgoAAAANSUhEUgAAAGcAAAAzCAYAAACKXhYYAAAAAXNSR0IArs4c6QAAAARnQU1BAACxjwv8YQUAAAAJcEhZcwAAFxEAABcRAcom8z8AABFISURBVHhe7VwHVBVZmi7yQ6KggPLeg+61nR07bodxtmd63O0z45mzxwm70707KtHcYk6MEQNqmwAzKuacMSHwyDlnJEsUSQKioqD2t/8tCpvwqPcQUMfjd8536lXVrf/+9//u/99bJd0cd7MR7/iG0I/o3wQuEnTecJrTuF6Pd3wDeI14oxEa4WDH4xyD5pV7eMfXzTpoXq2HZggJc+XeCS4U2rw4Wpdq8Y6vmb510Ap6Tr9rTnLnoMULw6B9vgbv+LpYDe0LtdD2fwqtiySMGzQFWdqgc6YK7/g6eBc656qh49cC7bM1Jzi30LZS1hG6pyrxjq+Bp+9C99oTaJ+uPsXtS9IR5OgMvRN3oIq6ArWP34HmsQpwRA2B2scroEPX2X1lz6rDdvtiVPZcVyp7TozKbLwSnqyEnm8z8+E055alK0jRHXpHy9ETdY6Ug/MpA3eglD9qHS6H2ck7sDp9B5ZE9luXtTlIbVi7/dSOfmvTNWX2ulIiHF/0IUJN6ru9fVey67yvB1Tb6UTmLyP1r3GozYYy+/3KY3cgufiIjuVnesyYdkgOl6Ej9Ym6h2iQ+0qg6VOKL33vYkFcPU4XPUJKXQsK7j9F8YM2st9p91rhX/EYnllNcAqvw+eX7/I2OO8SGngJ2Srlz7v2w6hH91hf9mF1WJ7UiKWJDd24TODI85S55I8yW9oHS2F1sgKL4qltUncbXbmc2synMbF+vwuuxW+uVUF6iqoA2Wn3W4/86snvlyaJr3/+AfQOl51VusZ0hf7BErRzEFFjXzE5WIy/+FchoLwZT579hN6g+elPSCURt6Q34mvfSmjtJ3tkk9nu2Bcj62vkmQo8fa66Dw+yx+2+3c0GI/P34/MVQsveg/V/99EzRFc9hntKI0ZfvsPbZFTWX6/pQ6SJOOhsE52XneGmqciYdgyi4DEasCDuKsLwIyU4XfBQcLtvYLoGVzTj2yuV0N5zm++nI7kdRVgUXSe0FkdhYysG+xRDZ68SO2T7ozPlaGp9LrTuG1pJrAtFD3mb3M5C6O/r3qfa5J8tgcHJRjqWnuPOiawxXWGwtwgG3kUUqELYkjApNU8EF/sPf71eydvn+xIo2dPGeJqt6uKvN+6C217QyQ6jBgXw45NleNBP4rSjtvkZvvOjPr2696k2vW/D8Hg9iVR8jtueryeEXT0Y7C6E7s4CDN5b2KtAqYtTuU3gPPOhv5sGSH21U4Ou/e58OdSoaC9wIuc+b2tQBzu8LRLs4xOl/S4OAyvTf7pCZc4zD4Zd+lVJmnyGR++x3xd6LQyD0c58cFtz4R6nXnnpDRqePMOHR4uh5ZEH1o9hB7I+t6fUCy3VQy2tC7Y+RdDxokB1sKVJgfvkWPGAiMNQ2tQK6X7qlwnUoV9R7iqA0aFaGOwquCC6XRaD7rZcyL0LUfXoqeCKONhMZ20ZWW0Ww9qYWnA/3oLRdhKnAyUeubCkTCq53yq0VB/TAqjMbOpsU2tbDj45chsPWgZGHAb32Lpu/fbIHfkw9qmmIwmjarssih+zYX9d9U6n6uFTLA2rxldHb8N2bz7e8y7Ahz6F+I9TJZhJATuW1YgK2l63o7C+BRY7ciHZmgNjz9xO5DZmY/zVl9tdKYofQmfLLRiSwO32tLdk49NDRSrF8c1vwt8ulcHuWgWm3ayEe3QNAsmeOsiseYzBXrkYpGQ8L+jB7uXBZF8VjLzyL75UKesE9yx4JYiXNJYg487SO8DqDGhTYCWbsqFH1CVhteic2eA2ZEG2Mw/T/e4guvwRptKRW58FE5rVJltvvaAxUZPaXsq9L1jvHZqpdH1+sJD3w4QCxWxqb8zCZzRRVImzNqoG3Ip03lfmG7cuE9o0hu9JsDpa/MXAYjD6cBHfvuN4OpHGarr3Loy3kTBuxRIhwn3AmgycoVkvBubYN0dpR+eWDmMSxWRzdxoT9SlIbMCmHa51bae7IRMfUuY1PBYPhhjcwqrArc14YVNnfSY+21+gUpzNMSQOTbCO/hjSeLhV6VgQWCm06hkTLpdBwz2z0/MvSNlsursSxltu+XLzY/SF6PYRFPBTmQ1C9z2Dlamxx2nbuiYdWkSjjSTCj1lKaUQCGPdwn1udhsUqAsHWMrHlLK2qGSZky5D6YTb11mXg37zzVYtDZYxbldbNJ116ftTuXDTRBkYMCwOoGqxO7/a8KQk8eGcF/b51uX8yph2rUuFJM0odtNJb5dG0enx7mHYi7lQeVqZCl4JtvD4DgzeoJmtnuC4dcVT2xHAo5R4qRDYLTLg/HKXSRn0zu5I1afh8b65KcbZEVVNZS+nml/7adIzwuoVK2pWJYamC3tdozJ2fz4SZVxk7+o562V1ZT9BekQrH8yVC9+rhGUUnuvQhlpOzo/fS7oSCo7E8BYNYsCj4Zu7kdBeyazo0sN8fKsBPIlnRQhPgKwq0X574mrQ7robvk9mVuJE4u3NUixNJ4iwjcbr4pU1+fe2dp/IzkivLHOqz7dm2cZp7kDDrs3xt+jVjBBi5pUK+KQNljS2CC73D46fPEVH8AIv9yvFLjyxoLU2G/koK2tq0btSke3tixbM0vvwhNF2TsIwCIYaShhZIN2aA+c/6+2LnLdXihNNa9Y+kF/6Y0qSSUCZxS5JwIKFWaNUznM4XQ3tZsvB8OoZsLYHZukzfYdOuDhLC2b8wX50KLQqG642X/3DYjhrabu+KqcaorSQSDXiwWwqYfUYjCqBsfTpKKahi2BxG7zHz4/HbPTl4JpZihAmnaPdEwR60PBlfblctjnswlaVZsfx4NZYk8s99sDkTnpFVQouewXz5d8rOQSSOOVWIIZuLmUBXh7klDYwwDOarUmC6IhmG1OnZtHuCK31DJa0XLpdKIPlHIkzI9hASSWtxIhxOFwktlINVld9703sLBc6M/EqpEH8HuZhxD3rUhz4J9KVXNh6oWNATyh5iU0gldkdX40zqPQTl30ctTSh1kFHZzI/DlCbZ0I23mX/XLBcGGAhhHBgMoeANJRrRIM3p6BNXLbjTd2yhQOgvToDpsiRI6OibKf65JqfqMSzZZFmaBK2F8fAKvyvcUY6G5qf4aBPtHhfE40sqqarE6QtWUtnWXpgAi/VFLE7Xpf22XRbBUAoco8XyJJi4JkB/UTycqVwU1PbPR9CVfmXgZsfgEwpi0xPxsrOLyovO/DjeHwmJM25/LsQLG7Dgcgk4lxh8tTVzwMQpqHkM+WqaNKvzMXR58nVuoNaYrhhKGdNOi6WUPSSQ7rxYyFclw/VKKTIrxbe9qvCI1oEP1qRg3sVi4YpyMBH+TGJImDjkh+nieMhXJqFQxSSJKLjP+/sFiT8Q4jxufY5x3jmQLMuBxbKUawO6xnSFhWs8upNK0cI46M6JwXAK1IRDeTibXIsqFe8BPcEj6A4UOeJfIXLpxdJiSQKMF8TCnIRh5GZGY2+keGlrefYcn29Mw0frUvtdnEYqm/ZH8iFxzaYJk3Rj6MxQQyFsrwYWi+MgRrOFsdCbHQ2DuTH4YFUSJh7KxWHakVX3QqiG5mf8DBRD4K16jKBMYX2aU59DFsXCckk8Vl0rFVr0DDdqM5J8609xgnIa8M3WdOgvIWEWx/u9cmEYLCkQ6tCCOHheDCQuUdAnjlyZiC0B5fxXg/4A26nVPWxFQnETogvv8yysaVbr7wuSSprw642p/EzvC8ruPcGllDqMP5CDIZTBhouzYLkozv+1CMNgSU4wWglHQwq88ayoTteU0YSyiZsSjhWXxdeSV4En9CI870whKlW8SEcWNGL5pWJsuFH6guuvl8LlRAHG7cjCv65I5MevPzOK1t9sEibez9JugLfLYrCaH4N2mpEoU47kYey2dEimR8BoZiSGzo1+cb8jhxH1poXj2y1pwtBfL0JzG1SKs5HE4CYGY9CMiG40+CESZrNpUlJ1GM6EWRB303Jh2usThsGKgj+MaPJDBD5dmcCvDYwHIyoxhkrFEJdI6E0OgwEJYUSDMCayI7tmOD0cp2JVv12/Cjyn8se+y4nBw78cOpNDYTU3SilZHKxdM0mgWH+z2X7GQoheH4bRbGGUkNM7A8uFYbSBrSeReY3YdL0EUw7m4M+e6Rjnkc4fZx3LQ1B27/4G4HXD078Mus6h/Hi7cU4UrJdkwmpOTMAbIQzDsFmRMKUM+GxZPOrV/JTxzwrPmySOUwjYmLvSelEGrGZHKcwmviHCMAx3iYA+ObwzoEwYwqtFcjHtyugdRwz3HrRSuya00MLfF3jeLIWeYzDYmH9mJKQL0zHMJUJhPsnXSAjLmwHzKaEYvSIejWr+9U1/ounxM3zqGgvbOZH4rx9TMHlfNpafLcC6S0VYc6EIsw7n4L+3peGLZbRznBGGxKKX+7uDdnj6kTgOQRg+M1xgBKQL0jBsZpTiF2+aMAyGDsFYfqZAcL//8FCNvxFQpNdh8KQQmNN6Z+IUDGOa1UZdaEzXzSaHQN8uCJuv9m3b7kW7NcnEIFiT0NYzwiGbl0bHKMX70xQmQjg6QeYU9I3MIXiTzDHomswx+LzcUbFSahfwkXB74GE1NRQjaebOOZSDxELxTyzqoLapBe4Xi1BwV/U3uUW0qTCwU8B6OgVLBU1JpLHuSfSy+vIvvV43SiCZ0NafbG4qEyhImTByuyvvyZ1DA+TOYY/ljkFxMifFLpmj4oDcMTiPrrXYTgrzHPFHvz7+2ZMakE6jrSXNTIOJgbAmof6XysixsDsorW1W+UW4Iyrrn+BgcDlGzYvExO3pwtWe8ZT9c7RrDMwp6MwHVWQ+smN+Hz7EegeWQe/vgZDPSYZ0eniIjWOoqRCGF3jfXiG3mRRWZjspIkdqHzJm2Lh9nT502kwO+x+byREtcseQq2PGqPGfcfQFUhKkncMoACY0k02JH7iE4y8bk+FKs9snqBz+KbVIvX0fabSAMyYX3sf1pGp4XCuG084MjJobCeOJChhMCMTYNYmYdSAbLiIc70ElZUoI8ef+VdHCORh/2pCk1J46/AP5ZTkjEdIpoSHKSxk0pI6BAfJJYdVmfzxuLHMMnEFCZMkdA5PkTkFZlE0RUjv/EdLx135lOzUOMofAZcKDAwMpBagrrUkkSwoEE8mQgs2O5rSQDnUKgoXAoY5BdE0BE8o4I2rDrrFgy6aGYAjdMxgfIEpjlqld+lVFZnsw+aLMnmoGYui0BMgpY0ZMjFO6XbZ1DhhtOzUWUju/v7NzuYPiHK0zEXI7/6+tHfz/k0paLK0/Kfw9x4A9VOYa3/9e+XrVL5CycqGSwbCepJzsnvJn3izauCRBNiUsVD7h+mBh6N1A68pquVPw/fY2JM5pmYO/D3+TQOee1KaR/bZxDPy1zWTahjsE/I6/ORCQUYDfdtr8wIQJERWGQeoQeIZKWaZwylHZ2kfZ8oiyJ5GyJM7GObxObh+wmN37Fyd/mdwh8BFxCt94ICBzDsLbSyYMlbLJoeHSyf5mwpB7RNuOLLCQExZ6ypTDcqeQRJmDYqnNpAhQKZvDNyS8Z68YSTu5VhvHIL4EDgiUD+rtoM2MBEidgyOk36kWhoFlAe3UfpJPULzPnztSJtkH7uN/Oyk8KYPSR31/jv+rTpm9//+xsiaf6DeKnQ8IaBeCt5G20yljnEMiVJWyjqCttRVlSjOVsx3sXOYQcJHK3Hn2+xeToowogxpk9oot7JyESiPx4rnvz/38/6rpb9CMoMG8XbSdHs+EUauUdQVlxDxe2Ekhf6My9hupc8gY4RaJF/CZjX3ATBun4F1tm4GgXwm3BgY0A6iWvj1kW2GWMcPtL5kLQ+w1ZA5B25kdG+eQnbZ2/p+y7LO0C7CQOYf+1sY57LrN5Kin1g4BdkLzgYOyAf6zkoJGmRMcOqIfPvtTSRvLNgNE0LtNPb/Fdgpm9i/Z2Af+Umg2gOC4/wehc3iB2rujPgAAAABJRU5ErkJggg==;" parent="s6-0-9MNlUgVhO18XEdk-1" vertex="1">
          <mxGeometry x="40" y="1373.7299999999998" width="47" height="23.27" as="geometry" />
        </mxCell>
        <mxCell id="s6-0-9MNlUgVhO18XEdk-59" value="" style="group" parent="s6-0-9MNlUgVhO18XEdk-1" vertex="1" connectable="0">
          <mxGeometry x="432" y="1479" width="120" height="37" as="geometry" />
        </mxCell>
        <mxCell id="s6-0-9MNlUgVhO18XEdk-60" value="" style="rounded=0;whiteSpace=wrap;html=1;fillColor=default;strokeColor=#003366;" parent="s6-0-9MNlUgVhO18XEdk-59" vertex="1">
          <mxGeometry width="120" height="37" as="geometry" />
        </mxCell>
        <mxCell id="s6-0-9MNlUgVhO18XEdk-61" value="DB Switch - SAP CAP Application" style="text;html=1;strokeColor=none;fillColor=none;align=center;verticalAlign=middle;whiteSpace=wrap;rounded=0;fontColor=#004C99;fontSize=8;fontStyle=1" parent="s6-0-9MNlUgVhO18XEdk-59" vertex="1">
          <mxGeometry x="28.367053909411304" y="6.25" width="91.6329460905887" height="24.5" as="geometry" />
        </mxCell>
        <mxCell id="s6-0-9MNlUgVhO18XEdk-62" value="" style="shape=image;verticalLabelPosition=bottom;labelBackgroundColor=default;verticalAlign=top;aspect=fixed;imageAspect=0;image=data:image/png,iVBORw0KGgoAAAANSUhEUgAAAEQAAABECAYAAAA4E5OyAAAAAXNSR0IArs4c6QAAAARnQU1BAACxjwv8YQUAAAAJcEhZcwAAFxEAABcRAcom8z8AAAfuSURBVHhe7VrbbxRlFF9viEEEEZV4AfRB4x2vTyIRRNQoUel259JSNdBEkxqhtLvf7MJ4wQRFunPbImBRiVHAJ8HrgxLig4mF7m6Ntj74YLCJb9D6B9RzZs5u57KX2W23uwvzS07a7nf2m/Od+b5zfud8DQUIECBAgAABAgS4gLBKli/tkD+e27JlzxWyLF9MH184CMvGlYJkrOCj+iYhpmm8ZBwWJO0LnhnHOck4KEr6O1yvtnmjvPeRcHTfAvra+Yf1Pe/NF7enHhbBATxL/ScwYxIcU0BS+d95STvOS/q69ph+DU1zfsByhH6YjxnjgqTbFu9PwCk/RWLqk6HQ5EU0ZfMCnSHE9JFCC0XhpdQ47JZ/wFH/FhrPCcfAmfH+MMYcmrr50C7pD8FiPM7gmTYKb72vTUo9xzHlen7rB4t5ed/iSHTvciFmvM4zXUU9OF6u76FTUpGwfHQOPaJ5sFHaeyMckd/sC8K3zMU0RUz0305qBYG7oC2u3SIwXbd/3xKIMXE9TKrNAUyf8CZ77QuBDDLBRbXup7rUy0mtLLpAF7LRBnAMHKmpufh4ahB3FKk1PoSEfg9s+z8ci2BGshJn2MEVOHp8XN9KwyF0Dsf0tXxM3QqZqQdi0mb8G3cpchxSqx+EuObYHQLTxsREsuQxKQeYZ4Vzp2hjke3GGj6mvQbOH+XMDGaNQXwyf+IRxezWytTH6+YYUVavgjd0YspwMAyIFg1XjXD46CUeR/sWcFBMf7cuRE+IG8vAgDN5Y8A5M0WswtuMJbAb0s7FViBxbSe+MJpudiAyoyXPNuMo+hEamhFwTNvpXGjK4jLwHHB+EnbC++C0AZCvnXqWcOCUV3o+mk/T1R5g0DaoT/IGwBl+g4ZmBMJ29UHbAkfgeZ+2J1J3dHV96wjYEDMWwuJXgy3Hbfqm2ANyzYEFm4g7I2dA1HiMhmYEQqz/aqpx+tpl/Tb6uChamHotBGP3bhlDQkgqtQPyD6xYcw/GKN8hG0toeMYQiadupl99QexVb4K4Npp3CNMn+V59HQ3XDh2yPBceNpB7MFJtNIaG6wqw6+28Q0AgFh3q6JBrk4rRERArHoCHHIQj4yzSgKSRWl3RltDuM2shm20YoDl2YGaPTpvcfx2mM+thU70MUxg8VNJfINW6wow9zBh02AdikjpgtZ2d+y4j1eqBbx8Wfcz9kJyAAROYdUi9rgjL8hwuqh8uYiem7ekVjFzCuAsmczDSnIDXT4oJoxXTIR4n+krdgV07AWg8vMTvHZkQBBNAhClrSLUytGzZswj7oJ5+BVShHFNbZpX4VAGk8Nhs4hkQOrv9UB9h24HU/AOOQad9IhTw8AHM+aTSFAAustYdaGF3q1g3kUp5cD36DfClv+yTYOMYgxapNBXM7r9tLcBsxyviOVi52idAwiMy9U4abjqEo7sWOOseqIyBs9BwaeCdCtJmu0NmtS6oEfAOyL4mrNBxrTRcHMj/wXu2Jo0+KTJtJQ03Ldq6kUtNrQt2zISveAhx4tYpZ+AXjcEOObmQhpsWeI0Ka8nvfAy07VFlKQ0XB/U28w7BHoSv+9i+7MqQmv0xpGU/CyXTpR24+/SykJr+BHR/r1qU7A8hLf0SzVgWbd2H5sHOdxBMLt63moaLw+pF2G/e9CO+UpSSGQRDJ01RMr/Qp4WhpjvzutOVZHo5zVoSyJvwdtDuEDgyq2i4OLiEer/9SwJLlQ8++MbdhqqZr2jUC2046dGvVtS0r2zRLitL3Q4R5f3lq3Qs5CCr5IMPkLEJQdq/goaLQ83+7DV2aAeNOtE3tMmjW42o2XMh5fS9NGtJtMa0J5C659YFQXUU2TgNFwcGH6TsuS+aEjPeouHiUDKPhrTMuNdoOB6FoAw9A7ILdAaqEmXoQ3MOH8DrCXsPBwWbXDDk72JdZEarq4YZ27AtVf5NoIFuh6DsOc2RRl0AL/hpYKf5WwLMMFDjPE/D5WFeTNvOm3UppB/xtcWUzLMeh+DWxixUB5g3jLAW0d7HYcbBii+18AY+PwFJBIqil/2QGTX9eSM4pZUpd4PdjvYFxkf8nFT8Ay+e4Nx9Y5/M7JYx4xRyFawPSLUwMMu4nYL8oRhHwc8xQPqVElwHm95g52YklU77TYe8SWqVw/y/DiyKXI0WU/Aqkxk7Sx4jkzy5nIJ8xQ3cOVpm2KNbXgZoBhNoS4QZr4J9I2Cbx2ZYi9oi+zj2pWD+D4iUOume3HyAZPxZ0iH4Fgst1E2mkN26dfxKMp2/JENbYFf86rETgqgIBWpb9+55pDo9mEEWtpq9OCIZKesQJfudZxHIQ+zQhr/06PgVW1ov4hDYLdqL4XDYf0PILyLRJP47lIZn07rKTJXeIcgi3QsoROuLpetygscP4wkBbRFY/yl0BDoGsktfzfs4WOi1yAcWmVVxTO8s6hB1iHkWYDLLImQKjxG+bb+C3AZLBhusHaLvEBP6+sZqdVrU/KzLIWfNhdQQ4aMV9ElnDVYb4JzDGfh3jZ3RmLDqmTMOZ6Ao6d2kcQHBzCgQMN3O0Ib7ScMJUz+9xREXKhEsERoahVInptxCjBIzQ6HKuFJRs2MF56870Ch33NAyo0WNtcp+m+40RB1qiHtlL7Ts31OGAjt1pUQHsHFkX9R0pGGPjpoWzS2sZk+UbdzgzpkOO7UE0/qxxjwy1QLJmL2CrVQCBAgQIECAAAHOG4RC/wOX+g4CIe5K4QAAAABJRU5ErkJggg==;" parent="s6-0-9MNlUgVhO18XEdk-59" vertex="1">
          <mxGeometry x="5.004177000391593" y="7.5" width="21.92925205586738" height="21.92925205586738" as="geometry" />
        </mxCell>
        <mxCell id="s6-0-9MNlUgVhO18XEdk-71" style="edgeStyle=orthogonalEdgeStyle;rounded=0;orthogonalLoop=1;jettySize=auto;html=1;fontSize=7;fontColor=#004C99;fillColor=#0050ef;strokeColor=#001DBC;entryX=0.5;entryY=0;entryDx=0;entryDy=0;startArrow=none;" parent="s6-0-9MNlUgVhO18XEdk-1" edge="1">
          <mxGeometry relative="1" as="geometry">
            <Array as="points">
              <mxPoint x="141" y="1540" />
              <mxPoint x="177" y="1540" />
            </Array>
            <mxPoint x="177.2500000000001" y="1567.5" as="targetPoint" />
            <mxPoint x="141" y="1530" as="sourcePoint" />
          </mxGeometry>
        </mxCell>
        <mxCell id="s6-0-9MNlUgVhO18XEdk-86" value="" style="endArrow=classic;html=1;rounded=0;strokeColor=#001DBC;fontSize=10;fontColor=none;fillColor=#0050ef;entryX=0.146;entryY=-0.302;entryDx=0;entryDy=0;startArrow=classic;startFill=1;entryPerimeter=0;" parent="s6-0-9MNlUgVhO18XEdk-1" edge="1">
          <mxGeometry width="50" height="50" relative="1" as="geometry">
            <mxPoint x="203" y="1584" as="sourcePoint" />
            <mxPoint x="538.49" y="1583.6580000000001" as="targetPoint" />
          </mxGeometry>
        </mxCell>
        <mxCell id="s6-0-9MNlUgVhO18XEdk-92" value="&lt;font size=&quot;1&quot; style=&quot;&quot;&gt;&lt;b style=&quot;&quot;&gt;Azure Traffic Manager&lt;/b&gt;&lt;/font&gt;" style="text;html=1;strokeColor=none;fillColor=default;align=center;verticalAlign=middle;whiteSpace=wrap;rounded=0;fontSize=7;fontColor=#004C99;fontStyle=0;labelBackgroundColor=none;" parent="s6-0-9MNlUgVhO18XEdk-1" vertex="1">
          <mxGeometry x="323.29" y="1330" width="108.71" height="12" as="geometry" />
        </mxCell>
        <mxCell id="s6-0-9MNlUgVhO18XEdk-93" value="" style="verticalLabelPosition=bottom;html=1;verticalAlign=top;align=center;strokeColor=none;fillColor=#00BEF2;shape=mxgraph.azure.traffic_manager;pointerEvents=1;fontSize=7;" parent="s6-0-9MNlUgVhO18XEdk-1" vertex="1">
          <mxGeometry x="359" y="1300" width="30" height="26" as="geometry" />
        </mxCell>
        <mxCell id="nFFv1Io46IaODYNnJVWk-11" style="edgeStyle=orthogonalEdgeStyle;rounded=0;orthogonalLoop=1;jettySize=auto;html=1;fontSize=7;fontColor=#004C99;fillColor=#0050ef;strokeColor=#001DBC;entryX=0.5;entryY=0;entryDx=0;entryDy=0;startArrow=none;exitX=0.5;exitY=1;exitDx=0;exitDy=0;" parent="s6-0-9MNlUgVhO18XEdk-1" edge="1">
          <mxGeometry relative="1" as="geometry">
            <Array as="points">
              <mxPoint x="240" y="1540" />
              <mxPoint x="177" y="1540" />
              <mxPoint x="177" y="1568" />
            </Array>
            <mxPoint x="177.2500000000001" y="1567.5" as="targetPoint" />
            <mxPoint x="240" y="1519" as="sourcePoint" />
          </mxGeometry>
        </mxCell>
        <mxCell id="nFFv1Io46IaODYNnJVWk-17" style="edgeStyle=orthogonalEdgeStyle;rounded=0;orthogonalLoop=1;jettySize=auto;html=1;fontSize=7;fontColor=#004C99;fillColor=#0050ef;strokeColor=#001DBC;entryX=0.5;entryY=0;entryDx=0;entryDy=0;startArrow=none;exitX=0.5;exitY=1;exitDx=0;exitDy=0;exitPerimeter=0;" parent="s6-0-9MNlUgVhO18XEdk-1" source="iDJNXH6s6hCmc-ZFNaHm-16" edge="1">
          <mxGeometry relative="1" as="geometry">
            <Array as="points">
              <mxPoint x="610" y="1537" />
              <mxPoint x="554" y="1537" />
            </Array>
            <mxPoint x="554" y="1565" as="targetPoint" />
            <mxPoint x="608.75" y="1516" as="sourcePoint" />
          </mxGeometry>
        </mxCell>
        <mxCell id="nFFv1Io46IaODYNnJVWk-18" style="edgeStyle=orthogonalEdgeStyle;rounded=0;orthogonalLoop=1;jettySize=auto;html=1;fontSize=7;fontColor=#004C99;fillColor=#0050ef;strokeColor=#001DBC;entryX=0.386;entryY=-0.126;entryDx=0;entryDy=0;startArrow=none;exitX=0.5;exitY=1;exitDx=0;exitDy=0;entryPerimeter=0;endArrow=none;endFill=0;" parent="s6-0-9MNlUgVhO18XEdk-1" edge="1">
          <mxGeometry relative="1" as="geometry">
            <Array as="points">
              <mxPoint x="497" y="1537" />
              <mxPoint x="554" y="1537" />
              <mxPoint x="554" y="1542" />
            </Array>
            <mxPoint x="554.3430000000001" y="1563.2869999999998" as="targetPoint" />
            <mxPoint x="497" y="1518" as="sourcePoint" />
          </mxGeometry>
        </mxCell>
        <mxCell id="nFFv1Io46IaODYNnJVWk-19" value="" style="group;fontSize=10;" parent="s6-0-9MNlUgVhO18XEdk-1" vertex="1" connectable="0">
          <mxGeometry x="318" y="1571" width="89" height="22" as="geometry" />
        </mxCell>
        <mxCell id="nFFv1Io46IaODYNnJVWk-20" value="" style="rounded=0;whiteSpace=wrap;html=1;fillColor=default;strokeColor=#003366;" parent="nFFv1Io46IaODYNnJVWk-19" vertex="1">
          <mxGeometry y="2" width="89" height="22" as="geometry" />
        </mxCell>
        <mxCell id="nFFv1Io46IaODYNnJVWk-21" value="&lt;font style=&quot;font-size: 8px;&quot;&gt;SDA Replication&lt;/font&gt;" style="text;html=1;strokeColor=none;fillColor=none;align=center;verticalAlign=middle;whiteSpace=wrap;rounded=0;fontColor=#004C99;fontSize=7;fontStyle=1" parent="nFFv1Io46IaODYNnJVWk-19" vertex="1">
          <mxGeometry x="7.23125" y="6.756756756756757" width="74.53750000000001" height="11.891891891891893" as="geometry" />
        </mxCell>
        <mxCell id="s6-0-9MNlUgVhO18XEdk-32" value="&lt;font style=&quot;font-size: 13px;&quot;&gt;BTP&lt;/font&gt;" style="text;html=1;strokeColor=none;fillColor=none;align=left;verticalAlign=middle;whiteSpace=wrap;rounded=0;fontSize=10;" parent="s6-0-9MNlUgVhO18XEdk-1" vertex="1">
          <mxGeometry x="87" y="1374.3600000000001" width="106" height="22" as="geometry" />
        </mxCell>
        <mxCell id="nFFv1Io46IaODYNnJVWk-4" value="" style="group" parent="s6-0-9MNlUgVhO18XEdk-1" vertex="1" connectable="0">
          <mxGeometry x="191" y="1482" width="104" height="37" as="geometry" />
        </mxCell>
        <mxCell id="s6-0-9MNlUgVhO18XEdk-38" value="" style="rounded=0;whiteSpace=wrap;html=1;fillColor=default;strokeColor=#003366;" parent="nFFv1Io46IaODYNnJVWk-4" vertex="1">
          <mxGeometry width="104" height="37" as="geometry" />
        </mxCell>
        <mxCell id="s6-0-9MNlUgVhO18XEdk-39" value="&lt;font style=&quot;font-size: 8px;&quot;&gt;DB Switch - SAP CAP Application&amp;nbsp;&lt;/font&gt;" style="text;html=1;strokeColor=none;fillColor=none;align=center;verticalAlign=middle;whiteSpace=wrap;rounded=0;fontColor=#004C99;fontSize=8;fontStyle=1" parent="nFFv1Io46IaODYNnJVWk-4" vertex="1">
          <mxGeometry x="23.718113388156464" y="6.25" width="79.41521994517687" height="24.5" as="geometry" />
        </mxCell>
        <mxCell id="s6-0-9MNlUgVhO18XEdk-40" value="" style="shape=image;verticalLabelPosition=bottom;labelBackgroundColor=default;verticalAlign=top;aspect=fixed;imageAspect=0;image=data:image/png,iVBORw0KGgoAAAANSUhEUgAAAEQAAABECAYAAAA4E5OyAAAAAXNSR0IArs4c6QAAAARnQU1BAACxjwv8YQUAAAAJcEhZcwAAFxEAABcRAcom8z8AAAfuSURBVHhe7VrbbxRlFF9viEEEEZV4AfRB4x2vTyIRRNQoUel259JSNdBEkxqhtLvf7MJ4wQRFunPbImBRiVHAJ8HrgxLig4mF7m6Ntj74YLCJb9D6B9RzZs5u57KX2W23uwvzS07a7nf2m/Od+b5zfud8DQUIECBAgAABAgS4gLBKli/tkD+e27JlzxWyLF9MH184CMvGlYJkrOCj+iYhpmm8ZBwWJO0LnhnHOck4KEr6O1yvtnmjvPeRcHTfAvra+Yf1Pe/NF7enHhbBATxL/ScwYxIcU0BS+d95STvOS/q69ph+DU1zfsByhH6YjxnjgqTbFu9PwCk/RWLqk6HQ5EU0ZfMCnSHE9JFCC0XhpdQ47JZ/wFH/FhrPCcfAmfH+MMYcmrr50C7pD8FiPM7gmTYKb72vTUo9xzHlen7rB4t5ed/iSHTvciFmvM4zXUU9OF6u76FTUpGwfHQOPaJ5sFHaeyMckd/sC8K3zMU0RUz0305qBYG7oC2u3SIwXbd/3xKIMXE9TKrNAUyf8CZ77QuBDDLBRbXup7rUy0mtLLpAF7LRBnAMHKmpufh4ahB3FKk1PoSEfg9s+z8ci2BGshJn2MEVOHp8XN9KwyF0Dsf0tXxM3QqZqQdi0mb8G3cpchxSqx+EuObYHQLTxsREsuQxKQeYZ4Vzp2hjke3GGj6mvQbOH+XMDGaNQXwyf+IRxezWytTH6+YYUVavgjd0YspwMAyIFg1XjXD46CUeR/sWcFBMf7cuRE+IG8vAgDN5Y8A5M0WswtuMJbAb0s7FViBxbSe+MJpudiAyoyXPNuMo+hEamhFwTNvpXGjK4jLwHHB+EnbC++C0AZCvnXqWcOCUV3o+mk/T1R5g0DaoT/IGwBl+g4ZmBMJ29UHbAkfgeZ+2J1J3dHV96wjYEDMWwuJXgy3Hbfqm2ANyzYEFm4g7I2dA1HiMhmYEQqz/aqpx+tpl/Tb6uChamHotBGP3bhlDQkgqtQPyD6xYcw/GKN8hG0toeMYQiadupl99QexVb4K4Npp3CNMn+V59HQ3XDh2yPBceNpB7MFJtNIaG6wqw6+28Q0AgFh3q6JBrk4rRERArHoCHHIQj4yzSgKSRWl3RltDuM2shm20YoDl2YGaPTpvcfx2mM+thU70MUxg8VNJfINW6wow9zBh02AdikjpgtZ2d+y4j1eqBbx8Wfcz9kJyAAROYdUi9rgjL8hwuqh8uYiem7ekVjFzCuAsmczDSnIDXT4oJoxXTIR4n+krdgV07AWg8vMTvHZkQBBNAhClrSLUytGzZswj7oJ5+BVShHFNbZpX4VAGk8Nhs4hkQOrv9UB9h24HU/AOOQad9IhTw8AHM+aTSFAAustYdaGF3q1g3kUp5cD36DfClv+yTYOMYgxapNBXM7r9tLcBsxyviOVi52idAwiMy9U4abjqEo7sWOOseqIyBs9BwaeCdCtJmu0NmtS6oEfAOyL4mrNBxrTRcHMj/wXu2Jo0+KTJtJQ03Ldq6kUtNrQt2zISveAhx4tYpZ+AXjcEOObmQhpsWeI0Ka8nvfAy07VFlKQ0XB/U28w7BHoSv+9i+7MqQmv0xpGU/CyXTpR24+/SykJr+BHR/r1qU7A8hLf0SzVgWbd2H5sHOdxBMLt63moaLw+pF2G/e9CO+UpSSGQRDJ01RMr/Qp4WhpjvzutOVZHo5zVoSyJvwdtDuEDgyq2i4OLiEer/9SwJLlQ8++MbdhqqZr2jUC2046dGvVtS0r2zRLitL3Q4R5f3lq3Qs5CCr5IMPkLEJQdq/goaLQ83+7DV2aAeNOtE3tMmjW42o2XMh5fS9NGtJtMa0J5C659YFQXUU2TgNFwcGH6TsuS+aEjPeouHiUDKPhrTMuNdoOB6FoAw9A7ILdAaqEmXoQ3MOH8DrCXsPBwWbXDDk72JdZEarq4YZ27AtVf5NoIFuh6DsOc2RRl0AL/hpYKf5WwLMMFDjPE/D5WFeTNvOm3UppB/xtcWUzLMeh+DWxixUB5g3jLAW0d7HYcbBii+18AY+PwFJBIqil/2QGTX9eSM4pZUpd4PdjvYFxkf8nFT8Ay+e4Nx9Y5/M7JYx4xRyFawPSLUwMMu4nYL8oRhHwc8xQPqVElwHm95g52YklU77TYe8SWqVw/y/DiyKXI0WU/Aqkxk7Sx4jkzy5nIJ8xQ3cOVpm2KNbXgZoBhNoS4QZr4J9I2Cbx2ZYi9oi+zj2pWD+D4iUOume3HyAZPxZ0iH4Fgst1E2mkN26dfxKMp2/JENbYFf86rETgqgIBWpb9+55pDo9mEEWtpq9OCIZKesQJfudZxHIQ+zQhr/06PgVW1ov4hDYLdqL4XDYf0PILyLRJP47lIZn07rKTJXeIcgi3QsoROuLpetygscP4wkBbRFY/yl0BDoGsktfzfs4WOi1yAcWmVVxTO8s6hB1iHkWYDLLImQKjxG+bb+C3AZLBhusHaLvEBP6+sZqdVrU/KzLIWfNhdQQ4aMV9ElnDVYb4JzDGfh3jZ3RmLDqmTMOZ6Ao6d2kcQHBzCgQMN3O0Ib7ScMJUz+9xREXKhEsERoahVInptxCjBIzQ6HKuFJRs2MF56870Ch33NAyo0WNtcp+m+40RB1qiHtlL7Ts31OGAjt1pUQHsHFkX9R0pGGPjpoWzS2sZk+UbdzgzpkOO7UE0/qxxjwy1QLJmL2CrVQCBAgQIECAAAHOG4RC/wOX+g4CIe5K4QAAAABJRU5ErkJggg==;" parent="nFFv1Io46IaODYNnJVWk-4" vertex="1">
          <mxGeometry x="3.470286733672714" y="7.5" width="19.00535178175173" height="19.00535178175173" as="geometry" />
        </mxCell>
        <mxCell id="iDJNXH6s6hCmc-ZFNaHm-13" value="" style="group" parent="s6-0-9MNlUgVhO18XEdk-1" vertex="1" connectable="0">
          <mxGeometry x="96.25" y="1469.9999999999998" width="87.5" height="60.00000000000023" as="geometry" />
        </mxCell>
        <mxCell id="iDJNXH6s6hCmc-ZFNaHm-9" value="" style="shape=image;verticalLabelPosition=bottom;labelBackgroundColor=default;verticalAlign=top;aspect=fixed;imageAspect=0;image=data:image/svg+xml,PHN2ZyB4bWxucz0iaHR0cDovL3d3dy53My5vcmcvMjAwMC9zdmciIGZpbGw9Im5vbmUiIHZpZXdCb3g9IjAgMCA0OCA0OCIgaGVpZ2h0PSI0OCIgd2lkdGg9IjQ4Ij4mI3hhOzxjaXJjbGUgc3Ryb2tlLXdpZHRoPSIwLjg1NzE0MyIgc3Ryb2tlPSIjRDVEQUREIiBmaWxsPSJ1cmwoI3BhaW50MF9saW5lYXJfMzIzMl80NjAyKSIgcj0iMjMuNTcxNCIgY3k9IjI0IiBjeD0iMjQiLz4mI3hhOzxnIGNsaXAtcGF0aD0idXJsKCNjbGlwMF8zMjMyXzQ2MDIpIj4mI3hhOzxwYXRoIGZpbGw9InVybCgjcGFpbnQxX2xpbmVhcl8zMjMyXzQ2MDIpIiBkPSJNMTUuNzUwNSAxNi42Njc3QzE2LjcyNDkgMTMuMzM2MiAxOS43OTc0IDEwLjQ5NjEgMjMuODY3NyAxMC40OTYxQzI3LjE2MzUgMTAuNDk2MSAyOS43MzQxIDEyLjE0NDYgMzEuMjU2MSAxNC42Mjg4QzM0LjYzOTYgMTUuMzAwMSAzNy4zNjc3IDE4LjMyMTcgMzcuMzY3NyAyMi4yMzE3QzM3LjM2NzcgMjUuNTg1NSAzNS40OTQ5IDI3Ljk4MzcgMzMuMDI0OCAyOS4xNDkyQzMzLjExMzYgMjguODUwNyAzMy4xNjEzIDI4LjUzNDQgMzMuMTYxMyAyOC4yMDdWMjYuOTgzOEMzMy4xNjEzIDI2LjE1ODkgMzIuODU4NiAyNS40MDQ4IDMyLjM1ODMgMjQuODI2M0MzMy4wMDkxIDI0LjIyMzcgMzMuNDE2NSAyMy4zNjE4IDMzLjQxNjUgMjIuNDA0OVYyMS40ODk2QzMzLjQxNjUgMTkuNjY3MyAzMS45MzkzIDE4LjE5MDEgMzAuMTE3IDE4LjE5MDFIMjkuMjA2NkMyOC4xOTkzIDE4LjE5MDEgMjcuMjk3MyAxOC42NDE1IDI2LjY5MjEgMTkuMzUzMVYxOC41ODkzQzI2LjY5MjEgMTYuNzY3IDI1LjIxNDkgMTUuMjg5OCAyMy4zOTI2IDE1LjI4OThIMjIuNDgyMkMyMC42NiAxNS4yODk4IDE5LjE4MjcgMTYuNzY3IDE5LjE4MjcgMTguNTg5M1YxOS41MDQ2QzE5LjE4MjcgMTkuNzQ5NyAxOS4yMDk1IDE5Ljk4ODUgMTkuMjYwMiAyMC4yMTg0QzE5LjIyODMgMjAuMjE3NSAxOS4xOTYyIDIwLjIxNyAxOS4xNjQxIDIwLjIxN0gxOC4yNTM3QzE2LjQzMTUgMjAuMjE3IDE0Ljk1NDIgMjEuNjk0MiAxNC45NTQyIDIzLjUxNjVWMjQuNDMxOEMxNC45NTQyIDI1LjkxNzkgMTUuOTM2OCAyNy4xNzQ2IDE3LjI4NzcgMjcuNTg3NkMxNi43OTIxIDI4LjE2NDkgMTYuNDkyNiAyOC45MTU0IDE2LjQ5MjYgMjkuNzM1OVYyOS44NjI4QzE0Ljk4OTcgMjkuNjY2NCAxMy42MTU5IDI5LjA4MjQgMTIuNTQ1MyAyOC4wMzU1QzExLjE5NTMgMjYuNzE1NiAxMC42MzIxIDI0Ljk1NjkgMTAuNjMyMSAyMy4yMDk3QzEwLjYzMjEgMjEuMjg3NyAxMS4zNzY1IDE5LjQxMjYgMTIuODYxMiAxOC4xMTA2QzEzLjY4ODIgMTcuMzg1MiAxNC42NzM2IDE2LjkgMTUuNzUwNSAxNi42Njc3WiIgY2xpcC1ydWxlPSJldmVub2RkIiBmaWxsLXJ1bGU9ImV2ZW5vZGQiLz4mI3hhOzxwYXRoIGZpbGw9InVybCgjcGFpbnQyX2xpbmVhcl8zMjMyXzQ2MDIpIiBkPSJNMjMuMzkyNiAxNi42NDAxQzI0LjQ2OTMgMTYuNjQwMSAyNS4zNDIxIDE3LjUxMyAyNS4zNDIxIDE4LjU4OTZWMTkuNTA0OUMyNS4zNDIxIDIwLjEwNTYgMjUuMDcwNCAyMC42NDI4IDI0LjY0MzMgMjEuMDAwNEwyNS4wMTM0IDIyLjIxMzhDMjUuNDk5MiAyMi4yNDMyIDI1LjkzNjkgMjIuNDUwNCAyNi4yNjI0IDIyLjc3MTJMMjcuMjU3MSAyMi4xOTYxVjIxLjQ4OTlDMjcuMjU3MSAyMC40MTMyIDI4LjEyOTkgMTkuNTQwNCAyOS4yMDY2IDE5LjU0MDRIMzAuMTE3QzMxLjE5MzcgMTkuNTQwNCAzMi4wNjY1IDIwLjQxMzIgMzIuMDY2NSAyMS40ODk5VjIyLjQwNTJDMzIuMDY2NSAyMy40ODE5IDMxLjE5MzcgMjQuMzU0NyAzMC4xMTcgMjQuMzU0N0gyOS4yMDY2QzI4LjY3ODQgMjQuMzU0NyAyOC4xOTkzIDI0LjE0NDcgMjcuODQ4MiAyMy44MDM2TDI2Ljg2MTMgMjQuMzc0MkwyNi44NDM0IDI0LjM0MzNWMjUuMDcwMUMyNi44NDM0IDI1LjA3NDUgMjYuODQzNCAyNS4wNzkgMjYuODQzNCAyNS4wODM0TDI3LjQyMzcgMjUuNDYzN0MyNy43NTc3IDI1LjE5NTMgMjguMTgyMSAyNS4wMzQ3IDI4LjY0MzkgMjUuMDM0N0gyOS44NjE3QzMwLjkzODQgMjUuMDM0NyAzMS44MTEyIDI1LjkwNzUgMzEuODExMiAyNi45ODQyVjI4LjIwNzRDMzEuODExMiAyOS4yODQxIDMwLjkzODQgMzAuMTU2OSAyOS44NjE3IDMwLjE1NjlIMjguNjQzOUMyNy41NjcyIDMwLjE1NjkgMjYuNjk0NCAyOS4yODQxIDI2LjY5NDQgMjguMjA3NFYyNy4wMDMzTDI2LjA5MTYgMjYuNjA4NEMyNS43NjExIDI2Ljg2NiAyNS4zNDU1IDI3LjAxOTYgMjQuODkzOSAyNy4wMTk2SDIzLjk4MzVDMjMuOTI5OCAyNy4wMTk2IDIzLjg3NjYgMjcuMDE3NCAyMy44MjM5IDI3LjAxMzFMMjIuNDQ2MSAyOC44NjMzQzIyLjU3NzggMjkuMTI1OSAyMi42NTE5IDI5LjQyMjQgMjIuNjUxOSAyOS43MzYyVjMwLjY1MTVDMjIuNjUxOSAzMS43MjgyIDIxLjc3OTEgMzIuNjAxIDIwLjcwMjQgMzIuNjAxSDE5Ljc5MjFDMTguNzE1NCAzMi42MDEgMTcuODQyNiAzMS43MjgyIDE3Ljg0MjYgMzAuNjUxNUwxNy44NDI2IDI5LjczNjJDMTcuODQyNiAyOC42NTk2IDE4LjcxNTQgMjcuNzg2NyAxOS43OTIxIDI3Ljc4NjdIMjAuNzAyNEMyMC44NDI4IDI3Ljc4NjcgMjAuOTc5OCAyNy44MDE2IDIxLjExMTcgMjcuODI5OEwyMi4zNjE0IDI2LjE1MThDMjIuMTU0NiAyNS44NDIyIDIyLjAzNCAyNS40NzAyIDIyLjAzNCAyNS4wNzAxVjI1LjA0NDVMMjEuMDE1NSAyNS4wNDQ1QzIwLjc1ODcgMjUuODIxMiAyMC4wMjY4IDI2LjM4MTcgMTkuMTY0MSAyNi4zODE3SDE4LjI1MzdDMTcuMTc3IDI2LjM4MTcgMTYuMzA0MiAyNS41MDg5IDE2LjMwNDIgMjQuNDMyMlYyMy41MTY5QzE2LjMwNDIgMjIuNDQwMiAxNy4xNzcgMjEuNTY3NCAxOC4yNTM3IDIxLjU2NzRIMTkuMTY0MUMyMC4xODY5IDIxLjU2NzQgMjEuMDI1OCAyMi4zNTUxIDIxLjEwNzEgMjMuMzU3TDIyLjIwNjQgMjMuMzU3QzIyLjQxNzQgMjIuODkwNiAyMi44MDY2IDIyLjUyMjEgMjMuMjg3MSAyMi4zMzgzTDIzLjAxNzUgMjEuNDU0NEgyMi40ODIyQzIxLjQwNTUgMjEuNDU0NCAyMC41MzI3IDIwLjU4MTYgMjAuNTMyNyAxOS41MDQ5VjE4LjU4OTZDMjAuNTMyNyAxNy41MTMgMjEuNDA1NSAxNi42NDAxIDIyLjQ4MjIgMTYuNjQwMUgyMy4zOTI2Wk0yMy42NTQ2IDE4LjU4OTZDMjMuNjU0NiAxOC40NDQ5IDIzLjUzNzMgMTguMzI3NiAyMy4zOTI2IDE4LjMyNzZMMjIuNDgyMiAxOC4zMjc2QzIyLjMzNzUgMTguMzI3NiAyMi4yMjAyIDE4LjQ0NDkgMjIuMjIwMiAxOC41ODk2VjE5LjUwNDlDMjIuMjIwMiAxOS42NDk2IDIyLjMzNzUgMTkuNzY2OSAyMi40ODIyIDE5Ljc2NjlIMjMuMzkyNkMyMy41MzczIDE5Ljc2NjkgMjMuNjU0NiAxOS42NDk2IDIzLjY1NDYgMTkuNTA0OVYxOC41ODk2Wk0zMC4zNzkgMjEuNDg5OUMzMC4zNzkgMjEuMzQ1MiAzMC4yNjE3IDIxLjIyNzkgMzAuMTE3IDIxLjIyNzlIMjkuMjA2NkMyOS4wNjE5IDIxLjIyNzkgMjguOTQ0NiAyMS4zNDUyIDI4Ljk0NDYgMjEuNDg5OVYyMi40MDUyQzI4Ljk0NDYgMjIuNTQ5OSAyOS4wNjE5IDIyLjY2NzIgMjkuMjA2NiAyMi42NjcySDMwLjExN0MzMC4yNjE3IDIyLjY2NzIgMzAuMzc5IDIyLjU0OTkgMzAuMzc5IDIyLjQwNTJWMjEuNDg5OVpNMzAuMTIzNyAyNi45ODQyQzMwLjEyMzcgMjYuODM5NSAzMC4wMDY0IDI2LjcyMjIgMjkuODYxNyAyNi43MjIySDI4LjY0MzlDMjguNDk5MiAyNi43MjIyIDI4LjM4MTkgMjYuODM5NSAyOC4zODE5IDI2Ljk4NDJWMjguMjA3NEMyOC4zODE5IDI4LjM1MjEgMjguNDk5MiAyOC40Njk0IDI4LjY0MzkgMjguNDY5NEgyOS44NjE3QzMwLjAwNjQgMjguNDY5NCAzMC4xMjM3IDI4LjM1MjEgMzAuMTIzNyAyOC4yMDc0VjI2Ljk4NDJaTTI0Ljg5MzkgMjMuODk3N0MyNS4wMzg2IDIzLjg5NzcgMjUuMTU1OSAyNC4wMTUgMjUuMTU1OSAyNC4xNTk3VjI1LjA3MDFDMjUuMTU1OSAyNS4yMTQ4IDI1LjAzODYgMjUuMzMyMSAyNC44OTM5IDI1LjMzMjFIMjMuOTgzNUMyMy44Mzg4IDI1LjMzMjEgMjMuNzIxNSAyNS4yMTQ4IDIzLjcyMTUgMjUuMDcwMVYyNC4xNTk3QzIzLjcyMTUgMjQuMDE1IDIzLjgzODggMjMuODk3NyAyMy45ODM1IDIzLjg5NzdIMjQuODkzOVpNMTkuMTY0MSAyMy4yNTQ5QzE5LjMwODggMjMuMjU0OSAxOS40MjYxIDIzLjM3MjIgMTkuNDI2MSAyMy41MTY5VjI0LjQzMjJDMTkuNDI2MSAyNC41NzY5IDE5LjMwODggMjQuNjk0MiAxOS4xNjQxIDI0LjY5NDJIMTguMjUzN0MxOC4xMDkgMjQuNjk0MiAxNy45OTE3IDI0LjU3NjkgMTcuOTkxNyAyNC40MzIyTDE3Ljk5MTcgMjMuNTE2OUMxNy45OTE3IDIzLjM3MjIgMTguMTA5IDIzLjI1NDkgMTguMjUzNyAyMy4yNTQ5SDE5LjE2NDFaTTIwLjk2NDQgMjkuNzM2MkMyMC45NjQ0IDI5LjU5MTUgMjAuODQ3MSAyOS40NzQyIDIwLjcwMjQgMjkuNDc0MkgxOS43OTIxQzE5LjY0NzQgMjkuNDc0MiAxOS41MzAxIDI5LjU5MTUgMTkuNTMwMSAyOS43MzYyVjMwLjY1MTVDMTkuNTMwMSAzMC43OTYyIDE5LjY0NzQgMzAuOTEzNSAxOS43OTIxIDMwLjkxMzVIMjAuNzAyNEMyMC44NDcxIDMwLjkxMzUgMjAuOTY0NCAzMC43OTYyIDIwLjk2NDQgMzAuNjUxNVYyOS43MzYyWiIgY2xpcC1ydWxlPSJldmVub2RkIiBmaWxsLXJ1bGU9ImV2ZW5vZGQiLz4mI3hhOzxwYXRoIGZpbGw9InVybCgjcGFpbnQzX2xpbmVhcl8zMjMyXzQ2MDIpIiBkPSJNMTMuMzEwNiAzMC44NjA4QzEzLjk2MyAzMC44NjA4IDE0LjQ5MTkgMzEuMzg5NyAxNC40OTE5IDMyLjA0MjFWMzMuMzcyOUMxNC40OTE5IDM0LjIxMTcgMTUuMTcxOSAzNC44OTE2IDE2LjAxMDYgMzQuODkxNkgzMS45ODk5QzMyLjgyODcgMzQuODkxNiAzMy41MDg2IDM0LjIxMTcgMzMuNTA4NiAzMy4zNzI5VjMyLjA0MjFDMzMuNTA4NiAzMS4zODk3IDM0LjAzNzUgMzAuODYwOCAzNC42ODk5IDMwLjg2MDhDMzUuMzQyMyAzMC44NjA4IDM1Ljg3MTIgMzEuMzg5NyAzNS44NzEyIDMyLjA0MjFWMzMuMzcyOUMzNS44NzEyIDM1LjUxNjQgMzQuMTMzNSAzNy4yNTQxIDMxLjk4OTkgMzcuMjU0MUgxNi4wMTA2QzEzLjg2NzEgMzcuMjU0MSAxMi4xMjk0IDM1LjUxNjQgMTIuMTI5NCAzMy4zNzI5VjMyLjA0MjFDMTIuMTI5NCAzMS4zODk3IDEyLjY1ODMgMzAuODYwOCAxMy4zMTA2IDMwLjg2MDhaTTMwLjgxNSAzMy4zMzIxQzMxLjM3NDIgMzMuMzMyMSAzMS44Mjc1IDMyLjg3ODggMzEuODI3NSAzMi4zMTk2QzMxLjgyNzUgMzEuNzYwNCAzMS4zNzQyIDMxLjMwNzEgMzAuODE1IDMxLjMwNzFDMzAuMjU1OCAzMS4zMDcxIDI5LjgwMjUgMzEuNzYwNCAyOS44MDI1IDMyLjMxOTZDMjkuODAyNSAzMi44Nzg4IDMwLjI1NTggMzMuMzMyMSAzMC44MTUgMzMuMzMyMVpNMjguNzI2MSAzMi4zMTk2QzI4LjcyNjEgMzIuODc4OCAyOC4yNzI3IDMzLjMzMjEgMjcuNzEzNiAzMy4zMzIxQzI3LjE1NDQgMzMuMzMyMSAyNi43MDExIDMyLjg3ODggMjYuNzAxMSAzMi4zMTk2QzI2LjcwMTEgMzEuNzYwNCAyNy4xNTQ0IDMxLjMwNzEgMjcuNzEzNiAzMS4zMDcxQzI4LjI3MjcgMzEuMzA3MSAyOC43MjYxIDMxLjc2MDQgMjguNzI2MSAzMi4zMTk2WiIgY2xpcC1ydWxlPSJldmVub2RkIiBmaWxsLXJ1bGU9ImV2ZW5vZGQiLz4mI3hhOzwvZz4mI3hhOzxkZWZzPiYjeGE7PGxpbmVhckdyYWRpZW50IGdyYWRpZW50VW5pdHM9InVzZXJTcGFjZU9uVXNlIiB5Mj0iNDQuMjQ0MyIgeDI9IjQxLjA2NDUiIHkxPSI2LjgxMjg0IiB4MT0iNC4zNTI4NyIgaWQ9InBhaW50MF9saW5lYXJfMzIzMl80NjAyIj4mI3hhOzxzdG9wIHN0b3AtY29sb3I9IndoaXRlIi8+JiN4YTs8c3RvcCBzdG9wLWNvbG9yPSIjRUFFQ0VFIiBvZmZzZXQ9IjEiLz4mI3hhOzwvbGluZWFyR3JhZGllbnQ+JiN4YTs8bGluZWFyR3JhZGllbnQgZ3JhZGllbnRVbml0cz0idXNlclNwYWNlT25Vc2UiIHkyPSIzMS4xODQiIHgyPSIyNy41MjMzIiB5MT0iMTMuMzkyMyIgeDE9IjE0LjYzOTkiIGlkPSJwYWludDFfbGluZWFyXzMyMzJfNDYwMiI+JiN4YTs8c3RvcCBzdG9wLWNvbG9yPSIjMDE5NUZGIi8+JiN4YTs8c3RvcCBzdG9wLWNvbG9yPSIjMTE0N0U5IiBvZmZzZXQ9IjAuOTkxMDI4Ii8+JiN4YTs8L2xpbmVhckdyYWRpZW50PiYjeGE7PGxpbmVhckdyYWRpZW50IGdyYWRpZW50VW5pdHM9InVzZXJTcGFjZU9uVXNlIiB5Mj0iMzAuMDY2NyIgeDI9IjI5LjgwNDQiIHkxPSIxOC45ODgzIiB4MT0iMTguNjM0NSIgaWQ9InBhaW50Ml9saW5lYXJfMzIzMl80NjAyIj4mI3hhOzxzdG9wIHN0b3AtY29sb3I9IiMxMzQ4RkYiLz4mI3hhOzxzdG9wIHN0b3AtY29sb3I9IiMwNjIzOEQiIG9mZnNldD0iMSIvPiYjeGE7PC9saW5lYXJHcmFkaWVudD4mI3hhOzxsaW5lYXJHcmFkaWVudCBncmFkaWVudFVuaXRzPSJ1c2VyU3BhY2VPblVzZSIgeTI9IjQwLjE0OTkiIHgyPSIxNy44Nzc5IiB5MT0iMzEuODAxNCIgeDE9IjE1LjYzOTUiIGlkPSJwYWludDNfbGluZWFyXzMyMzJfNDYwMiI+JiN4YTs8c3RvcCBzdG9wLWNvbG9yPSIjMTM0OEZGIi8+JiN4YTs8c3RvcCBzdG9wLWNvbG9yPSIjMDYyMzhEIiBvZmZzZXQ9IjEiLz4mI3hhOzwvbGluZWFyR3JhZGllbnQ+JiN4YTs8Y2xpcFBhdGggaWQ9ImNsaXAwXzMyMzJfNDYwMiI+JiN4YTs8cmVjdCB0cmFuc2Zvcm09InRyYW5zbGF0ZSgxMC41IDEwLjUpIiBmaWxsPSJ3aGl0ZSIgaGVpZ2h0PSIyNyIgd2lkdGg9IjI3Ii8+JiN4YTs8L2NsaXBQYXRoPiYjeGE7PC9kZWZzPiYjeGE7PC9zdmc+;points=[[0,0,0,0,0],[0,0.25,0,0,0],[0,0.5,0,0,0],[0,0.75,0,0,0],[0.25,0,0,0,0],[0.5,0,0,0,0],[0.75,0,0,0,0],[1,0,0,0,0],[1,0.25,0,0,0],[1,0.5,0,0,0],[1,0.75,0,0,0]];" parent="iDJNXH6s6hCmc-ZFNaHm-13" vertex="1">
          <mxGeometry x="26.680000000000007" width="34.14" height="34.14" as="geometry" />
        </mxCell>
        <mxCell id="iDJNXH6s6hCmc-ZFNaHm-10" value="&lt;font color=&quot;#1d2d3e&quot; size=&quot;1&quot; face=&quot;arial&quot; style=&quot;&quot;&gt;&lt;b style=&quot;&quot;&gt;Cloud Integration Flow&lt;br&gt;&lt;/b&gt;&lt;/font&gt;" style="text;html=1;align=center;verticalAlign=top;resizable=1;points=[[0,0.5,0,0,0],[0.21,1,0,0,0],[0.5,1,0,0,0],[0.85,1,0,0,0],[1,0.5,0,0,0]];autosize=0;strokeColor=none;fillColor=none;fontSize=12;fontColor=default;fontFamily=Helvetica;fixedWidth=1;imageWidth=24;whiteSpace=wrap;labelBackgroundColor=none;" parent="iDJNXH6s6hCmc-ZFNaHm-13" vertex="1">
          <mxGeometry y="24.18000000000029" width="87.5" height="35.82" as="geometry" />
        </mxCell>
        <mxCell id="iDJNXH6s6hCmc-ZFNaHm-14" value="" style="group" parent="s6-0-9MNlUgVhO18XEdk-1" vertex="1" connectable="0">
          <mxGeometry x="566" y="1464.9999999999998" width="87.5" height="60.00000000000023" as="geometry" />
        </mxCell>
        <mxCell id="iDJNXH6s6hCmc-ZFNaHm-15" value="" style="shape=image;verticalLabelPosition=bottom;labelBackgroundColor=default;verticalAlign=top;aspect=fixed;imageAspect=0;image=data:image/svg+xml,PHN2ZyB4bWxucz0iaHR0cDovL3d3dy53My5vcmcvMjAwMC9zdmciIGZpbGw9Im5vbmUiIHZpZXdCb3g9IjAgMCA0OCA0OCIgaGVpZ2h0PSI0OCIgd2lkdGg9IjQ4Ij4mI3hhOzxjaXJjbGUgc3Ryb2tlLXdpZHRoPSIwLjg1NzE0MyIgc3Ryb2tlPSIjRDVEQUREIiBmaWxsPSJ1cmwoI3BhaW50MF9saW5lYXJfMzIzMl80NjAyKSIgcj0iMjMuNTcxNCIgY3k9IjI0IiBjeD0iMjQiLz4mI3hhOzxnIGNsaXAtcGF0aD0idXJsKCNjbGlwMF8zMjMyXzQ2MDIpIj4mI3hhOzxwYXRoIGZpbGw9InVybCgjcGFpbnQxX2xpbmVhcl8zMjMyXzQ2MDIpIiBkPSJNMTUuNzUwNSAxNi42Njc3QzE2LjcyNDkgMTMuMzM2MiAxOS43OTc0IDEwLjQ5NjEgMjMuODY3NyAxMC40OTYxQzI3LjE2MzUgMTAuNDk2MSAyOS43MzQxIDEyLjE0NDYgMzEuMjU2MSAxNC42Mjg4QzM0LjYzOTYgMTUuMzAwMSAzNy4zNjc3IDE4LjMyMTcgMzcuMzY3NyAyMi4yMzE3QzM3LjM2NzcgMjUuNTg1NSAzNS40OTQ5IDI3Ljk4MzcgMzMuMDI0OCAyOS4xNDkyQzMzLjExMzYgMjguODUwNyAzMy4xNjEzIDI4LjUzNDQgMzMuMTYxMyAyOC4yMDdWMjYuOTgzOEMzMy4xNjEzIDI2LjE1ODkgMzIuODU4NiAyNS40MDQ4IDMyLjM1ODMgMjQuODI2M0MzMy4wMDkxIDI0LjIyMzcgMzMuNDE2NSAyMy4zNjE4IDMzLjQxNjUgMjIuNDA0OVYyMS40ODk2QzMzLjQxNjUgMTkuNjY3MyAzMS45MzkzIDE4LjE5MDEgMzAuMTE3IDE4LjE5MDFIMjkuMjA2NkMyOC4xOTkzIDE4LjE5MDEgMjcuMjk3MyAxOC42NDE1IDI2LjY5MjEgMTkuMzUzMVYxOC41ODkzQzI2LjY5MjEgMTYuNzY3IDI1LjIxNDkgMTUuMjg5OCAyMy4zOTI2IDE1LjI4OThIMjIuNDgyMkMyMC42NiAxNS4yODk4IDE5LjE4MjcgMTYuNzY3IDE5LjE4MjcgMTguNTg5M1YxOS41MDQ2QzE5LjE4MjcgMTkuNzQ5NyAxOS4yMDk1IDE5Ljk4ODUgMTkuMjYwMiAyMC4yMTg0QzE5LjIyODMgMjAuMjE3NSAxOS4xOTYyIDIwLjIxNyAxOS4xNjQxIDIwLjIxN0gxOC4yNTM3QzE2LjQzMTUgMjAuMjE3IDE0Ljk1NDIgMjEuNjk0MiAxNC45NTQyIDIzLjUxNjVWMjQuNDMxOEMxNC45NTQyIDI1LjkxNzkgMTUuOTM2OCAyNy4xNzQ2IDE3LjI4NzcgMjcuNTg3NkMxNi43OTIxIDI4LjE2NDkgMTYuNDkyNiAyOC45MTU0IDE2LjQ5MjYgMjkuNzM1OVYyOS44NjI4QzE0Ljk4OTcgMjkuNjY2NCAxMy42MTU5IDI5LjA4MjQgMTIuNTQ1MyAyOC4wMzU1QzExLjE5NTMgMjYuNzE1NiAxMC42MzIxIDI0Ljk1NjkgMTAuNjMyMSAyMy4yMDk3QzEwLjYzMjEgMjEuMjg3NyAxMS4zNzY1IDE5LjQxMjYgMTIuODYxMiAxOC4xMTA2QzEzLjY4ODIgMTcuMzg1MiAxNC42NzM2IDE2LjkgMTUuNzUwNSAxNi42Njc3WiIgY2xpcC1ydWxlPSJldmVub2RkIiBmaWxsLXJ1bGU9ImV2ZW5vZGQiLz4mI3hhOzxwYXRoIGZpbGw9InVybCgjcGFpbnQyX2xpbmVhcl8zMjMyXzQ2MDIpIiBkPSJNMjMuMzkyNiAxNi42NDAxQzI0LjQ2OTMgMTYuNjQwMSAyNS4zNDIxIDE3LjUxMyAyNS4zNDIxIDE4LjU4OTZWMTkuNTA0OUMyNS4zNDIxIDIwLjEwNTYgMjUuMDcwNCAyMC42NDI4IDI0LjY0MzMgMjEuMDAwNEwyNS4wMTM0IDIyLjIxMzhDMjUuNDk5MiAyMi4yNDMyIDI1LjkzNjkgMjIuNDUwNCAyNi4yNjI0IDIyLjc3MTJMMjcuMjU3MSAyMi4xOTYxVjIxLjQ4OTlDMjcuMjU3MSAyMC40MTMyIDI4LjEyOTkgMTkuNTQwNCAyOS4yMDY2IDE5LjU0MDRIMzAuMTE3QzMxLjE5MzcgMTkuNTQwNCAzMi4wNjY1IDIwLjQxMzIgMzIuMDY2NSAyMS40ODk5VjIyLjQwNTJDMzIuMDY2NSAyMy40ODE5IDMxLjE5MzcgMjQuMzU0NyAzMC4xMTcgMjQuMzU0N0gyOS4yMDY2QzI4LjY3ODQgMjQuMzU0NyAyOC4xOTkzIDI0LjE0NDcgMjcuODQ4MiAyMy44MDM2TDI2Ljg2MTMgMjQuMzc0MkwyNi44NDM0IDI0LjM0MzNWMjUuMDcwMUMyNi44NDM0IDI1LjA3NDUgMjYuODQzNCAyNS4wNzkgMjYuODQzNCAyNS4wODM0TDI3LjQyMzcgMjUuNDYzN0MyNy43NTc3IDI1LjE5NTMgMjguMTgyMSAyNS4wMzQ3IDI4LjY0MzkgMjUuMDM0N0gyOS44NjE3QzMwLjkzODQgMjUuMDM0NyAzMS44MTEyIDI1LjkwNzUgMzEuODExMiAyNi45ODQyVjI4LjIwNzRDMzEuODExMiAyOS4yODQxIDMwLjkzODQgMzAuMTU2OSAyOS44NjE3IDMwLjE1NjlIMjguNjQzOUMyNy41NjcyIDMwLjE1NjkgMjYuNjk0NCAyOS4yODQxIDI2LjY5NDQgMjguMjA3NFYyNy4wMDMzTDI2LjA5MTYgMjYuNjA4NEMyNS43NjExIDI2Ljg2NiAyNS4zNDU1IDI3LjAxOTYgMjQuODkzOSAyNy4wMTk2SDIzLjk4MzVDMjMuOTI5OCAyNy4wMTk2IDIzLjg3NjYgMjcuMDE3NCAyMy44MjM5IDI3LjAxMzFMMjIuNDQ2MSAyOC44NjMzQzIyLjU3NzggMjkuMTI1OSAyMi42NTE5IDI5LjQyMjQgMjIuNjUxOSAyOS43MzYyVjMwLjY1MTVDMjIuNjUxOSAzMS43MjgyIDIxLjc3OTEgMzIuNjAxIDIwLjcwMjQgMzIuNjAxSDE5Ljc5MjFDMTguNzE1NCAzMi42MDEgMTcuODQyNiAzMS43MjgyIDE3Ljg0MjYgMzAuNjUxNUwxNy44NDI2IDI5LjczNjJDMTcuODQyNiAyOC42NTk2IDE4LjcxNTQgMjcuNzg2NyAxOS43OTIxIDI3Ljc4NjdIMjAuNzAyNEMyMC44NDI4IDI3Ljc4NjcgMjAuOTc5OCAyNy44MDE2IDIxLjExMTcgMjcuODI5OEwyMi4zNjE0IDI2LjE1MThDMjIuMTU0NiAyNS44NDIyIDIyLjAzNCAyNS40NzAyIDIyLjAzNCAyNS4wNzAxVjI1LjA0NDVMMjEuMDE1NSAyNS4wNDQ1QzIwLjc1ODcgMjUuODIxMiAyMC4wMjY4IDI2LjM4MTcgMTkuMTY0MSAyNi4zODE3SDE4LjI1MzdDMTcuMTc3IDI2LjM4MTcgMTYuMzA0MiAyNS41MDg5IDE2LjMwNDIgMjQuNDMyMlYyMy41MTY5QzE2LjMwNDIgMjIuNDQwMiAxNy4xNzcgMjEuNTY3NCAxOC4yNTM3IDIxLjU2NzRIMTkuMTY0MUMyMC4xODY5IDIxLjU2NzQgMjEuMDI1OCAyMi4zNTUxIDIxLjEwNzEgMjMuMzU3TDIyLjIwNjQgMjMuMzU3QzIyLjQxNzQgMjIuODkwNiAyMi44MDY2IDIyLjUyMjEgMjMuMjg3MSAyMi4zMzgzTDIzLjAxNzUgMjEuNDU0NEgyMi40ODIyQzIxLjQwNTUgMjEuNDU0NCAyMC41MzI3IDIwLjU4MTYgMjAuNTMyNyAxOS41MDQ5VjE4LjU4OTZDMjAuNTMyNyAxNy41MTMgMjEuNDA1NSAxNi42NDAxIDIyLjQ4MjIgMTYuNjQwMUgyMy4zOTI2Wk0yMy42NTQ2IDE4LjU4OTZDMjMuNjU0NiAxOC40NDQ5IDIzLjUzNzMgMTguMzI3NiAyMy4zOTI2IDE4LjMyNzZMMjIuNDgyMiAxOC4zMjc2QzIyLjMzNzUgMTguMzI3NiAyMi4yMjAyIDE4LjQ0NDkgMjIuMjIwMiAxOC41ODk2VjE5LjUwNDlDMjIuMjIwMiAxOS42NDk2IDIyLjMzNzUgMTkuNzY2OSAyMi40ODIyIDE5Ljc2NjlIMjMuMzkyNkMyMy41MzczIDE5Ljc2NjkgMjMuNjU0NiAxOS42NDk2IDIzLjY1NDYgMTkuNTA0OVYxOC41ODk2Wk0zMC4zNzkgMjEuNDg5OUMzMC4zNzkgMjEuMzQ1MiAzMC4yNjE3IDIxLjIyNzkgMzAuMTE3IDIxLjIyNzlIMjkuMjA2NkMyOS4wNjE5IDIxLjIyNzkgMjguOTQ0NiAyMS4zNDUyIDI4Ljk0NDYgMjEuNDg5OVYyMi40MDUyQzI4Ljk0NDYgMjIuNTQ5OSAyOS4wNjE5IDIyLjY2NzIgMjkuMjA2NiAyMi42NjcySDMwLjExN0MzMC4yNjE3IDIyLjY2NzIgMzAuMzc5IDIyLjU0OTkgMzAuMzc5IDIyLjQwNTJWMjEuNDg5OVpNMzAuMTIzNyAyNi45ODQyQzMwLjEyMzcgMjYuODM5NSAzMC4wMDY0IDI2LjcyMjIgMjkuODYxNyAyNi43MjIySDI4LjY0MzlDMjguNDk5MiAyNi43MjIyIDI4LjM4MTkgMjYuODM5NSAyOC4zODE5IDI2Ljk4NDJWMjguMjA3NEMyOC4zODE5IDI4LjM1MjEgMjguNDk5MiAyOC40Njk0IDI4LjY0MzkgMjguNDY5NEgyOS44NjE3QzMwLjAwNjQgMjguNDY5NCAzMC4xMjM3IDI4LjM1MjEgMzAuMTIzNyAyOC4yMDc0VjI2Ljk4NDJaTTI0Ljg5MzkgMjMuODk3N0MyNS4wMzg2IDIzLjg5NzcgMjUuMTU1OSAyNC4wMTUgMjUuMTU1OSAyNC4xNTk3VjI1LjA3MDFDMjUuMTU1OSAyNS4yMTQ4IDI1LjAzODYgMjUuMzMyMSAyNC44OTM5IDI1LjMzMjFIMjMuOTgzNUMyMy44Mzg4IDI1LjMzMjEgMjMuNzIxNSAyNS4yMTQ4IDIzLjcyMTUgMjUuMDcwMVYyNC4xNTk3QzIzLjcyMTUgMjQuMDE1IDIzLjgzODggMjMuODk3NyAyMy45ODM1IDIzLjg5NzdIMjQuODkzOVpNMTkuMTY0MSAyMy4yNTQ5QzE5LjMwODggMjMuMjU0OSAxOS40MjYxIDIzLjM3MjIgMTkuNDI2MSAyMy41MTY5VjI0LjQzMjJDMTkuNDI2MSAyNC41NzY5IDE5LjMwODggMjQuNjk0MiAxOS4xNjQxIDI0LjY5NDJIMTguMjUzN0MxOC4xMDkgMjQuNjk0MiAxNy45OTE3IDI0LjU3NjkgMTcuOTkxNyAyNC40MzIyTDE3Ljk5MTcgMjMuNTE2OUMxNy45OTE3IDIzLjM3MjIgMTguMTA5IDIzLjI1NDkgMTguMjUzNyAyMy4yNTQ5SDE5LjE2NDFaTTIwLjk2NDQgMjkuNzM2MkMyMC45NjQ0IDI5LjU5MTUgMjAuODQ3MSAyOS40NzQyIDIwLjcwMjQgMjkuNDc0MkgxOS43OTIxQzE5LjY0NzQgMjkuNDc0MiAxOS41MzAxIDI5LjU5MTUgMTkuNTMwMSAyOS43MzYyVjMwLjY1MTVDMTkuNTMwMSAzMC43OTYyIDE5LjY0NzQgMzAuOTEzNSAxOS43OTIxIDMwLjkxMzVIMjAuNzAyNEMyMC44NDcxIDMwLjkxMzUgMjAuOTY0NCAzMC43OTYyIDIwLjk2NDQgMzAuNjUxNVYyOS43MzYyWiIgY2xpcC1ydWxlPSJldmVub2RkIiBmaWxsLXJ1bGU9ImV2ZW5vZGQiLz4mI3hhOzxwYXRoIGZpbGw9InVybCgjcGFpbnQzX2xpbmVhcl8zMjMyXzQ2MDIpIiBkPSJNMTMuMzEwNiAzMC44NjA4QzEzLjk2MyAzMC44NjA4IDE0LjQ5MTkgMzEuMzg5NyAxNC40OTE5IDMyLjA0MjFWMzMuMzcyOUMxNC40OTE5IDM0LjIxMTcgMTUuMTcxOSAzNC44OTE2IDE2LjAxMDYgMzQuODkxNkgzMS45ODk5QzMyLjgyODcgMzQuODkxNiAzMy41MDg2IDM0LjIxMTcgMzMuNTA4NiAzMy4zNzI5VjMyLjA0MjFDMzMuNTA4NiAzMS4zODk3IDM0LjAzNzUgMzAuODYwOCAzNC42ODk5IDMwLjg2MDhDMzUuMzQyMyAzMC44NjA4IDM1Ljg3MTIgMzEuMzg5NyAzNS44NzEyIDMyLjA0MjFWMzMuMzcyOUMzNS44NzEyIDM1LjUxNjQgMzQuMTMzNSAzNy4yNTQxIDMxLjk4OTkgMzcuMjU0MUgxNi4wMTA2QzEzLjg2NzEgMzcuMjU0MSAxMi4xMjk0IDM1LjUxNjQgMTIuMTI5NCAzMy4zNzI5VjMyLjA0MjFDMTIuMTI5NCAzMS4zODk3IDEyLjY1ODMgMzAuODYwOCAxMy4zMTA2IDMwLjg2MDhaTTMwLjgxNSAzMy4zMzIxQzMxLjM3NDIgMzMuMzMyMSAzMS44Mjc1IDMyLjg3ODggMzEuODI3NSAzMi4zMTk2QzMxLjgyNzUgMzEuNzYwNCAzMS4zNzQyIDMxLjMwNzEgMzAuODE1IDMxLjMwNzFDMzAuMjU1OCAzMS4zMDcxIDI5LjgwMjUgMzEuNzYwNCAyOS44MDI1IDMyLjMxOTZDMjkuODAyNSAzMi44Nzg4IDMwLjI1NTggMzMuMzMyMSAzMC44MTUgMzMuMzMyMVpNMjguNzI2MSAzMi4zMTk2QzI4LjcyNjEgMzIuODc4OCAyOC4yNzI3IDMzLjMzMjEgMjcuNzEzNiAzMy4zMzIxQzI3LjE1NDQgMzMuMzMyMSAyNi43MDExIDMyLjg3ODggMjYuNzAxMSAzMi4zMTk2QzI2LjcwMTEgMzEuNzYwNCAyNy4xNTQ0IDMxLjMwNzEgMjcuNzEzNiAzMS4zMDcxQzI4LjI3MjcgMzEuMzA3MSAyOC43MjYxIDMxLjc2MDQgMjguNzI2MSAzMi4zMTk2WiIgY2xpcC1ydWxlPSJldmVub2RkIiBmaWxsLXJ1bGU9ImV2ZW5vZGQiLz4mI3hhOzwvZz4mI3hhOzxkZWZzPiYjeGE7PGxpbmVhckdyYWRpZW50IGdyYWRpZW50VW5pdHM9InVzZXJTcGFjZU9uVXNlIiB5Mj0iNDQuMjQ0MyIgeDI9IjQxLjA2NDUiIHkxPSI2LjgxMjg0IiB4MT0iNC4zNTI4NyIgaWQ9InBhaW50MF9saW5lYXJfMzIzMl80NjAyIj4mI3hhOzxzdG9wIHN0b3AtY29sb3I9IndoaXRlIi8+JiN4YTs8c3RvcCBzdG9wLWNvbG9yPSIjRUFFQ0VFIiBvZmZzZXQ9IjEiLz4mI3hhOzwvbGluZWFyR3JhZGllbnQ+JiN4YTs8bGluZWFyR3JhZGllbnQgZ3JhZGllbnRVbml0cz0idXNlclNwYWNlT25Vc2UiIHkyPSIzMS4xODQiIHgyPSIyNy41MjMzIiB5MT0iMTMuMzkyMyIgeDE9IjE0LjYzOTkiIGlkPSJwYWludDFfbGluZWFyXzMyMzJfNDYwMiI+JiN4YTs8c3RvcCBzdG9wLWNvbG9yPSIjMDE5NUZGIi8+JiN4YTs8c3RvcCBzdG9wLWNvbG9yPSIjMTE0N0U5IiBvZmZzZXQ9IjAuOTkxMDI4Ii8+JiN4YTs8L2xpbmVhckdyYWRpZW50PiYjeGE7PGxpbmVhckdyYWRpZW50IGdyYWRpZW50VW5pdHM9InVzZXJTcGFjZU9uVXNlIiB5Mj0iMzAuMDY2NyIgeDI9IjI5LjgwNDQiIHkxPSIxOC45ODgzIiB4MT0iMTguNjM0NSIgaWQ9InBhaW50Ml9saW5lYXJfMzIzMl80NjAyIj4mI3hhOzxzdG9wIHN0b3AtY29sb3I9IiMxMzQ4RkYiLz4mI3hhOzxzdG9wIHN0b3AtY29sb3I9IiMwNjIzOEQiIG9mZnNldD0iMSIvPiYjeGE7PC9saW5lYXJHcmFkaWVudD4mI3hhOzxsaW5lYXJHcmFkaWVudCBncmFkaWVudFVuaXRzPSJ1c2VyU3BhY2VPblVzZSIgeTI9IjQwLjE0OTkiIHgyPSIxNy44Nzc5IiB5MT0iMzEuODAxNCIgeDE9IjE1LjYzOTUiIGlkPSJwYWludDNfbGluZWFyXzMyMzJfNDYwMiI+JiN4YTs8c3RvcCBzdG9wLWNvbG9yPSIjMTM0OEZGIi8+JiN4YTs8c3RvcCBzdG9wLWNvbG9yPSIjMDYyMzhEIiBvZmZzZXQ9IjEiLz4mI3hhOzwvbGluZWFyR3JhZGllbnQ+JiN4YTs8Y2xpcFBhdGggaWQ9ImNsaXAwXzMyMzJfNDYwMiI+JiN4YTs8cmVjdCB0cmFuc2Zvcm09InRyYW5zbGF0ZSgxMC41IDEwLjUpIiBmaWxsPSJ3aGl0ZSIgaGVpZ2h0PSIyNyIgd2lkdGg9IjI3Ii8+JiN4YTs8L2NsaXBQYXRoPiYjeGE7PC9kZWZzPiYjeGE7PC9zdmc+;points=[[0,0,0,0,0],[0,0.25,0,0,0],[0,0.5,0,0,0],[0,0.75,0,0,0],[0.25,0,0,0,0],[0.5,0,0,0,0],[0.75,0,0,0,0],[1,0,0,0,0],[1,0.25,0,0,0],[1,0.5,0,0,0],[1,0.75,0,0,0]];" parent="iDJNXH6s6hCmc-ZFNaHm-14" vertex="1">
          <mxGeometry x="26.680000000000007" width="34.14" height="34.14" as="geometry" />
        </mxCell>
        <mxCell id="iDJNXH6s6hCmc-ZFNaHm-16" value="&lt;font color=&quot;#1d2d3e&quot; size=&quot;1&quot; face=&quot;arial&quot; style=&quot;&quot;&gt;&lt;b style=&quot;&quot;&gt;Cloud Integration Flow&lt;br&gt;&lt;/b&gt;&lt;/font&gt;" style="text;html=1;align=center;verticalAlign=top;resizable=1;points=[[0,0.5,0,0,0],[0.21,1,0,0,0],[0.5,1,0,0,0],[0.85,1,0,0,0],[1,0.5,0,0,0]];autosize=0;strokeColor=none;fillColor=none;fontSize=12;fontColor=default;fontFamily=Helvetica;fixedWidth=1;imageWidth=24;whiteSpace=wrap;labelBackgroundColor=none;" parent="iDJNXH6s6hCmc-ZFNaHm-14" vertex="1">
          <mxGeometry y="24.18000000000029" width="87.5" height="35.82" as="geometry" />
        </mxCell>
        <mxCell id="iDJNXH6s6hCmc-ZFNaHm-7" value="&lt;font size=&quot;1&quot; face=&quot;arial&quot; style=&quot;&quot;&gt;&lt;b style=&quot;font-size: 13px;&quot;&gt;Subaccount - Azure US20&lt;/b&gt;&lt;/font&gt;" style="text;html=1;align=left;verticalAlign=middle;resizable=0;points=[];autosize=1;strokeColor=none;fillColor=none;fontSize=12;fontColor=#1d2d3e;fontFamily=Helvetica;" parent="s6-0-9MNlUgVhO18XEdk-1" vertex="1">
          <mxGeometry x="59.99740740740742" y="1412" width="180" height="30" as="geometry" />
        </mxCell>
        <mxCell id="iDJNXH6s6hCmc-ZFNaHm-23" value="" style="group" parent="s6-0-9MNlUgVhO18XEdk-1" vertex="1" connectable="0">
          <mxGeometry x="135" y="1570" width="90" height="40" as="geometry" />
        </mxCell>
        <mxCell id="iDJNXH6s6hCmc-ZFNaHm-20" value="" style="shape=image;verticalLabelPosition=bottom;verticalAlign=top;imageAspect=0;aspect=fixed;image=data:image/svg+xml,PHN2ZyB4bWxucz0iaHR0cDovL3d3dy53My5vcmcvMjAwMC9zdmciIGZpbGw9Im5vbmUiIHZpZXdCb3g9IjAgMCA0OSA0OSIgaGVpZ2h0PSI0OSIgd2lkdGg9IjQ5Ij4mI3hhOzxjaXJjbGUgc3Ryb2tlLXdpZHRoPSIwLjg1NzE0MyIgc3Ryb2tlPSIjRDVEQUREIiBmaWxsPSJ1cmwoI3BhaW50MF9saW5lYXJfMjYyMl8zMTYyKSIgcj0iMjMuNTcxNCIgY3k9IjI0LjAzNDkiIGN4PSIyNC41Ii8+JiN4YTs8ZyBjbGlwLXBhdGg9InVybCgjY2xpcDBfMjYyMl8zMTYyKSI+JiN4YTs8cGF0aCBmaWxsPSJ1cmwoI3BhaW50MV9yYWRpYWxfMjYyMl8zMTYyKSIgZD0iTTE3LjA4MjQgMTkuNjE4NkMxNi43OTA3IDE1Ljc0MzQgMTkuODk2MiAxMS41MzQ5IDI0LjMzMjcgMTEuNTM0OUMyNy43Njk1IDExLjUzNDkgMzAuMjkxNCAxMy42MTgzIDMxLjQ5NSAxNi44NTE2QzM0LjgzMzIgMTYuNjE4NCAzOC4wMDAxIDE5LjQ1ODEgMzguMDAwMSAyMy41MzU0QzM4LjAwMDEgMjYuMTI4NyAzNi43Njc4IDI4LjA5ODMgMzQuOTg2NyAyOS4yMDE0VjI1Ljc1MTNDMzQuOTg2NyAyNS42Mjg4IDM0Ljk3NTMgMjUuNTMxNiAzNC45NzIxIDI1LjUwMzZDMzQuOTY3IDI1LjQ2MDMgMzQuOTYxNCAyNS40MjM3IDM0Ljk1NzQgMjUuMzk5MkMzNC45NDk0IDI1LjM0OTUgMzQuOTQwNiAyNS4zMDM3IDM0LjkzMzMgMjUuMjY4MUMzNC45MTg2IDI1LjE5NTggMzQuOSAyNS4xMTUxIDM0Ljg3OTcgMjUuMDM2NkMzNC44NjMzIDI0Ljk3MzUgMzQuODI5NiAyNC44NDggMzQuNzc5NyAyNC43MTU2TDM0Ljc3ODIgMjQuNzExNkMzNC43Njk0IDI0LjY4ODIgMzQuNzQ1MSAyNC42MjM0IDM0LjcwMzcgMjQuNTM3MkMzNC4xMzAzIDIzLjAzODkgMzIuNzc3NCAyMi4wNjA0IDMxLjQzOTIgMjEuNDc3NEMyOS45NjU5IDIwLjgzNTUgMjguMTQ2OSAyMC41MDA0IDI2LjIwNTcgMjAuNTAwNEMyNC4yNjYzIDIwLjUwMDQgMjIuNDQ3NyAyMC44MzMgMjAuOTczMiAyMS40NzM2QzE5LjU5ODkgMjIuMDcwNiAxOC4yMTM5IDIzLjA4MTkgMTcuNjYxMyAyNC42NDIzQzE3LjU0MDIgMjQuOTIxMyAxNy40MjQ3IDI1LjMwMDMgMTcuNDI0NyAyNS43NTkzVjMwLjE4NTVIMTYuNTExNkMxMi44Nzc2IDMwLjE4NTUgMTEgMjcuOTUzOSAxMSAyNC44MzQzQzExIDIxLjU2MDQgMTMuMzkxMiAxOC45NzY2IDE3LjA4MjQgMTkuNjE4NloiIGNsaXAtcnVsZT0iZXZlbm9kZCIgZmlsbC1ydWxlPSJldmVub2RkIi8+JiN4YTs8cGF0aCBmaWxsPSJ1cmwoI3BhaW50Ml9yYWRpYWxfMjYyMl8zMTYyKSIgZD0iTTI2LjIwNTcgMjIuNTI1N0MyOS42NTU4IDIyLjUyNTcgMzIuMzM3NCAyMy43MjY0IDMyLjg1NzcgMjUuMzkxNEMzMi44ODM3IDI1LjM2NTQgMzIuOTYxNyAyNS43MDc1IDMyLjk2MTcgMjUuNzUxNlYzNS4wNzcyQzMyLjk2MTcgMzcuMDQ2MyAzMC4wNTYgMzguNTM1MiAyNi4yMDU3IDM4LjUzNTJDMjIuMzU1NCAzOC41MzUyIDE5LjQ0OTcgMzcuMDQ2MyAxOS40NDk3IDM1LjA3NzJWMjUuNzU5NkMxOS40NDk3IDI1LjYyMzUgMTkuNDg5NyAyNS41MDM1IDE5LjU0NTggMjUuMzkxNEMyMC4wNzQxIDIzLjcxODQgMjIuNzU1NyAyMi41MjU3IDI2LjIwNTcgMjIuNTI1N1pNMzEuMzYwOCAyNS45ODM4QzMxLjM2MDggMjUuMjQ3MyAyOS4zMDM2IDI0LjEyNjcgMjYuMjA1NyAyNC4xMjY3QzIzLjEwNzkgMjQuMTI2NyAyMS4wNTA2IDI1LjI0NzMgMjEuMDUwNiAyNS45ODM4QzIxLjA1MDYgMjYuNzIwMiAyMy4xMDc5IDI3Ljg0MDkgMjYuMjA1NyAyNy44NDA5QzI5LjMwMzYgMjcuODQwOSAzMS4zNjA4IDI2LjcyMDIgMzEuMzYwOCAyNS45ODM4Wk0zMS41NTU0IDMwLjA5NzdDMzEuNTU1NCAyOS41Mzg1IDMxLjEwMjEgMjkuMDg1MiAzMC41NDI5IDI5LjA4NTJDMjkuOTgzNyAyOS4wODUyIDI5LjUzMDQgMjkuNTM4NSAyOS41MzA0IDMwLjA5NzdWMzQuNzc3QzI5LjUzMDQgMzUuMzM2MiAyOS45ODM3IDM1Ljc4OTUgMzAuNTQyOSAzNS43ODk1QzMxLjEwMjEgMzUuNzg5NSAzMS41NTU0IDM1LjMzNjIgMzEuNTU1NCAzNC43NzdWMzAuMDk3N1oiIGNsaXAtcnVsZT0iZXZlbm9kZCIgZmlsbC1ydWxlPSJldmVub2RkIi8+JiN4YTs8L2c+JiN4YTs8ZGVmcz4mI3hhOzxsaW5lYXJHcmFkaWVudCBncmFkaWVudFVuaXRzPSJ1c2VyU3BhY2VPblVzZSIgeTI9IjQ0LjI3OTIiIHgyPSI0MS41NjQ1IiB5MT0iNi44NDc3NSIgeDE9IjQuODUyODciIGlkPSJwYWludDBfbGluZWFyXzI2MjJfMzE2MiI+JiN4YTs8c3RvcCBzdG9wLWNvbG9yPSJ3aGl0ZSIvPiYjeGE7PHN0b3Agc3RvcC1jb2xvcj0iI0VBRUNFRSIgb2Zmc2V0PSIxIi8+JiN4YTs8L2xpbmVhckdyYWRpZW50PiYjeGE7PHJhZGlhbEdyYWRpZW50IGdyYWRpZW50VHJhbnNmb3JtPSJ0cmFuc2xhdGUoMTUuMTg3IDE1LjQ5OTQpIHJvdGF0ZSg0NS4zMTgzKSBzY2FsZSgyNi41ODQ1IDUwLjIyOTQpIiBncmFkaWVudFVuaXRzPSJ1c2VyU3BhY2VPblVzZSIgcj0iMSIgY3k9IjAiIGN4PSIwIiBpZD0icGFpbnQxX3JhZGlhbF8yNjIyXzMxNjIiPiYjeGE7PHN0b3Agc3RvcC1jb2xvcj0iIzAxOTVGRiIvPiYjeGE7PHN0b3Agc3RvcC1jb2xvcj0iIzExNDdFOSIgb2Zmc2V0PSIxIi8+JiN4YTs8L3JhZGlhbEdyYWRpZW50PiYjeGE7PHJhZGlhbEdyYWRpZW50IGdyYWRpZW50VHJhbnNmb3JtPSJ0cmFuc2xhdGUoMTUuMTgwOSAxNS41OTY3KSByb3RhdGUoNDUuMDAwMykgc2NhbGUoMjYuNTk4IDI0LjIzNzcpIiBncmFkaWVudFVuaXRzPSJ1c2VyU3BhY2VPblVzZSIgcj0iMSIgY3k9IjAiIGN4PSIwIiBpZD0icGFpbnQyX3JhZGlhbF8yNjIyXzMxNjIiPiYjeGE7PHN0b3Agc3RvcC1jb2xvcj0iIzEzNDhGRiIvPiYjeGE7PHN0b3Agc3RvcC1jb2xvcj0iIzA2MjM4RCIgb2Zmc2V0PSIxIi8+JiN4YTs8L3JhZGlhbEdyYWRpZW50PiYjeGE7PGNsaXBQYXRoIGlkPSJjbGlwMF8yNjIyXzMxNjIiPiYjeGE7PHJlY3QgdHJhbnNmb3JtPSJ0cmFuc2xhdGUoMTEgMTEuNTM0OSkiIGZpbGw9IndoaXRlIiBoZWlnaHQ9IjI3IiB3aWR0aD0iMjciLz4mI3hhOzwvY2xpcFBhdGg+JiN4YTs8L2RlZnM+JiN4YTs8L3N2Zz4=;points=[[0,0,0,0,0],[0,0.25,0,0,0],[0,0.5,0,0,0],[0,0.75,0,0,0],[0.25,0,0,0,0],[0.5,0,0,0,0],[0.75,0,0,0,0],[1,0,0,0,0],[1,0.25,0,0,0],[1,0.5,0,0,0],[1,0.75,0,0,0]];" parent="iDJNXH6s6hCmc-ZFNaHm-23" vertex="1">
          <mxGeometry x="30" width="30" height="30" as="geometry" />
        </mxCell>
        <mxCell id="iDJNXH6s6hCmc-ZFNaHm-21" value="&lt;font color=&quot;#1d2d3e&quot; size=&quot;1&quot; face=&quot;arial&quot; style=&quot;&quot;&gt;&lt;b style=&quot;&quot;&gt;SAP HANA Cloud&lt;br&gt;&lt;/b&gt;&lt;/font&gt;" style="text;html=1;align=center;verticalAlign=top;resizable=1;points=[[0,0.5,0,0,0],[0.21,1,0,0,0],[0.5,1,0,0,0],[0.85,1,0,0,0],[1,0.5,0,0,0]];autosize=0;strokeColor=none;fillColor=none;fontSize=12;fontColor=default;fontFamily=Helvetica;fixedWidth=1;imageWidth=24;whiteSpace=wrap;labelBackgroundColor=none;" parent="iDJNXH6s6hCmc-ZFNaHm-23" vertex="1">
          <mxGeometry y="23" width="90" height="17" as="geometry" />
        </mxCell>
        <mxCell id="iDJNXH6s6hCmc-ZFNaHm-24" value="" style="group" parent="s6-0-9MNlUgVhO18XEdk-1" vertex="1" connectable="0">
          <mxGeometry x="510" y="1567" width="90" height="40" as="geometry" />
        </mxCell>
        <mxCell id="iDJNXH6s6hCmc-ZFNaHm-25" value="" style="shape=image;verticalLabelPosition=bottom;verticalAlign=top;imageAspect=0;aspect=fixed;image=data:image/svg+xml,PHN2ZyB4bWxucz0iaHR0cDovL3d3dy53My5vcmcvMjAwMC9zdmciIGZpbGw9Im5vbmUiIHZpZXdCb3g9IjAgMCA0OSA0OSIgaGVpZ2h0PSI0OSIgd2lkdGg9IjQ5Ij4mI3hhOzxjaXJjbGUgc3Ryb2tlLXdpZHRoPSIwLjg1NzE0MyIgc3Ryb2tlPSIjRDVEQUREIiBmaWxsPSJ1cmwoI3BhaW50MF9saW5lYXJfMjYyMl8zMTYyKSIgcj0iMjMuNTcxNCIgY3k9IjI0LjAzNDkiIGN4PSIyNC41Ii8+JiN4YTs8ZyBjbGlwLXBhdGg9InVybCgjY2xpcDBfMjYyMl8zMTYyKSI+JiN4YTs8cGF0aCBmaWxsPSJ1cmwoI3BhaW50MV9yYWRpYWxfMjYyMl8zMTYyKSIgZD0iTTE3LjA4MjQgMTkuNjE4NkMxNi43OTA3IDE1Ljc0MzQgMTkuODk2MiAxMS41MzQ5IDI0LjMzMjcgMTEuNTM0OUMyNy43Njk1IDExLjUzNDkgMzAuMjkxNCAxMy42MTgzIDMxLjQ5NSAxNi44NTE2QzM0LjgzMzIgMTYuNjE4NCAzOC4wMDAxIDE5LjQ1ODEgMzguMDAwMSAyMy41MzU0QzM4LjAwMDEgMjYuMTI4NyAzNi43Njc4IDI4LjA5ODMgMzQuOTg2NyAyOS4yMDE0VjI1Ljc1MTNDMzQuOTg2NyAyNS42Mjg4IDM0Ljk3NTMgMjUuNTMxNiAzNC45NzIxIDI1LjUwMzZDMzQuOTY3IDI1LjQ2MDMgMzQuOTYxNCAyNS40MjM3IDM0Ljk1NzQgMjUuMzk5MkMzNC45NDk0IDI1LjM0OTUgMzQuOTQwNiAyNS4zMDM3IDM0LjkzMzMgMjUuMjY4MUMzNC45MTg2IDI1LjE5NTggMzQuOSAyNS4xMTUxIDM0Ljg3OTcgMjUuMDM2NkMzNC44NjMzIDI0Ljk3MzUgMzQuODI5NiAyNC44NDggMzQuNzc5NyAyNC43MTU2TDM0Ljc3ODIgMjQuNzExNkMzNC43Njk0IDI0LjY4ODIgMzQuNzQ1MSAyNC42MjM0IDM0LjcwMzcgMjQuNTM3MkMzNC4xMzAzIDIzLjAzODkgMzIuNzc3NCAyMi4wNjA0IDMxLjQzOTIgMjEuNDc3NEMyOS45NjU5IDIwLjgzNTUgMjguMTQ2OSAyMC41MDA0IDI2LjIwNTcgMjAuNTAwNEMyNC4yNjYzIDIwLjUwMDQgMjIuNDQ3NyAyMC44MzMgMjAuOTczMiAyMS40NzM2QzE5LjU5ODkgMjIuMDcwNiAxOC4yMTM5IDIzLjA4MTkgMTcuNjYxMyAyNC42NDIzQzE3LjU0MDIgMjQuOTIxMyAxNy40MjQ3IDI1LjMwMDMgMTcuNDI0NyAyNS43NTkzVjMwLjE4NTVIMTYuNTExNkMxMi44Nzc2IDMwLjE4NTUgMTEgMjcuOTUzOSAxMSAyNC44MzQzQzExIDIxLjU2MDQgMTMuMzkxMiAxOC45NzY2IDE3LjA4MjQgMTkuNjE4NloiIGNsaXAtcnVsZT0iZXZlbm9kZCIgZmlsbC1ydWxlPSJldmVub2RkIi8+JiN4YTs8cGF0aCBmaWxsPSJ1cmwoI3BhaW50Ml9yYWRpYWxfMjYyMl8zMTYyKSIgZD0iTTI2LjIwNTcgMjIuNTI1N0MyOS42NTU4IDIyLjUyNTcgMzIuMzM3NCAyMy43MjY0IDMyLjg1NzcgMjUuMzkxNEMzMi44ODM3IDI1LjM2NTQgMzIuOTYxNyAyNS43MDc1IDMyLjk2MTcgMjUuNzUxNlYzNS4wNzcyQzMyLjk2MTcgMzcuMDQ2MyAzMC4wNTYgMzguNTM1MiAyNi4yMDU3IDM4LjUzNTJDMjIuMzU1NCAzOC41MzUyIDE5LjQ0OTcgMzcuMDQ2MyAxOS40NDk3IDM1LjA3NzJWMjUuNzU5NkMxOS40NDk3IDI1LjYyMzUgMTkuNDg5NyAyNS41MDM1IDE5LjU0NTggMjUuMzkxNEMyMC4wNzQxIDIzLjcxODQgMjIuNzU1NyAyMi41MjU3IDI2LjIwNTcgMjIuNTI1N1pNMzEuMzYwOCAyNS45ODM4QzMxLjM2MDggMjUuMjQ3MyAyOS4zMDM2IDI0LjEyNjcgMjYuMjA1NyAyNC4xMjY3QzIzLjEwNzkgMjQuMTI2NyAyMS4wNTA2IDI1LjI0NzMgMjEuMDUwNiAyNS45ODM4QzIxLjA1MDYgMjYuNzIwMiAyMy4xMDc5IDI3Ljg0MDkgMjYuMjA1NyAyNy44NDA5QzI5LjMwMzYgMjcuODQwOSAzMS4zNjA4IDI2LjcyMDIgMzEuMzYwOCAyNS45ODM4Wk0zMS41NTU0IDMwLjA5NzdDMzEuNTU1NCAyOS41Mzg1IDMxLjEwMjEgMjkuMDg1MiAzMC41NDI5IDI5LjA4NTJDMjkuOTgzNyAyOS4wODUyIDI5LjUzMDQgMjkuNTM4NSAyOS41MzA0IDMwLjA5NzdWMzQuNzc3QzI5LjUzMDQgMzUuMzM2MiAyOS45ODM3IDM1Ljc4OTUgMzAuNTQyOSAzNS43ODk1QzMxLjEwMjEgMzUuNzg5NSAzMS41NTU0IDM1LjMzNjIgMzEuNTU1NCAzNC43NzdWMzAuMDk3N1oiIGNsaXAtcnVsZT0iZXZlbm9kZCIgZmlsbC1ydWxlPSJldmVub2RkIi8+JiN4YTs8L2c+JiN4YTs8ZGVmcz4mI3hhOzxsaW5lYXJHcmFkaWVudCBncmFkaWVudFVuaXRzPSJ1c2VyU3BhY2VPblVzZSIgeTI9IjQ0LjI3OTIiIHgyPSI0MS41NjQ1IiB5MT0iNi44NDc3NSIgeDE9IjQuODUyODciIGlkPSJwYWludDBfbGluZWFyXzI2MjJfMzE2MiI+JiN4YTs8c3RvcCBzdG9wLWNvbG9yPSJ3aGl0ZSIvPiYjeGE7PHN0b3Agc3RvcC1jb2xvcj0iI0VBRUNFRSIgb2Zmc2V0PSIxIi8+JiN4YTs8L2xpbmVhckdyYWRpZW50PiYjeGE7PHJhZGlhbEdyYWRpZW50IGdyYWRpZW50VHJhbnNmb3JtPSJ0cmFuc2xhdGUoMTUuMTg3IDE1LjQ5OTQpIHJvdGF0ZSg0NS4zMTgzKSBzY2FsZSgyNi41ODQ1IDUwLjIyOTQpIiBncmFkaWVudFVuaXRzPSJ1c2VyU3BhY2VPblVzZSIgcj0iMSIgY3k9IjAiIGN4PSIwIiBpZD0icGFpbnQxX3JhZGlhbF8yNjIyXzMxNjIiPiYjeGE7PHN0b3Agc3RvcC1jb2xvcj0iIzAxOTVGRiIvPiYjeGE7PHN0b3Agc3RvcC1jb2xvcj0iIzExNDdFOSIgb2Zmc2V0PSIxIi8+JiN4YTs8L3JhZGlhbEdyYWRpZW50PiYjeGE7PHJhZGlhbEdyYWRpZW50IGdyYWRpZW50VHJhbnNmb3JtPSJ0cmFuc2xhdGUoMTUuMTgwOSAxNS41OTY3KSByb3RhdGUoNDUuMDAwMykgc2NhbGUoMjYuNTk4IDI0LjIzNzcpIiBncmFkaWVudFVuaXRzPSJ1c2VyU3BhY2VPblVzZSIgcj0iMSIgY3k9IjAiIGN4PSIwIiBpZD0icGFpbnQyX3JhZGlhbF8yNjIyXzMxNjIiPiYjeGE7PHN0b3Agc3RvcC1jb2xvcj0iIzEzNDhGRiIvPiYjeGE7PHN0b3Agc3RvcC1jb2xvcj0iIzA2MjM4RCIgb2Zmc2V0PSIxIi8+JiN4YTs8L3JhZGlhbEdyYWRpZW50PiYjeGE7PGNsaXBQYXRoIGlkPSJjbGlwMF8yNjIyXzMxNjIiPiYjeGE7PHJlY3QgdHJhbnNmb3JtPSJ0cmFuc2xhdGUoMTEgMTEuNTM0OSkiIGZpbGw9IndoaXRlIiBoZWlnaHQ9IjI3IiB3aWR0aD0iMjciLz4mI3hhOzwvY2xpcFBhdGg+JiN4YTs8L2RlZnM+JiN4YTs8L3N2Zz4=;points=[[0,0,0,0,0],[0,0.25,0,0,0],[0,0.5,0,0,0],[0,0.75,0,0,0],[0.25,0,0,0,0],[0.5,0,0,0,0],[0.75,0,0,0,0],[1,0,0,0,0],[1,0.25,0,0,0],[1,0.5,0,0,0],[1,0.75,0,0,0]];" parent="iDJNXH6s6hCmc-ZFNaHm-24" vertex="1">
          <mxGeometry x="30" width="30" height="30" as="geometry" />
        </mxCell>
        <mxCell id="iDJNXH6s6hCmc-ZFNaHm-26" value="&lt;font color=&quot;#1d2d3e&quot; size=&quot;1&quot; face=&quot;arial&quot; style=&quot;&quot;&gt;&lt;b style=&quot;&quot;&gt;SAP HANA Cloud&lt;br&gt;&lt;/b&gt;&lt;/font&gt;" style="text;html=1;align=center;verticalAlign=top;resizable=1;points=[[0,0.5,0,0,0],[0.21,1,0,0,0],[0.5,1,0,0,0],[0.85,1,0,0,0],[1,0.5,0,0,0]];autosize=0;strokeColor=none;fillColor=none;fontSize=12;fontColor=default;fontFamily=Helvetica;fixedWidth=1;imageWidth=24;whiteSpace=wrap;labelBackgroundColor=none;" parent="iDJNXH6s6hCmc-ZFNaHm-24" vertex="1">
          <mxGeometry y="23" width="90" height="17" as="geometry" />
        </mxCell>
        <mxCell id="waSIGoQwlQna2YlyMDtl-0" value="" style="shape=image;verticalLabelPosition=bottom;labelBackgroundColor=default;verticalAlign=top;aspect=fixed;imageAspect=0;image=data:image/png,iVBORw0KGgoAAAANSUhEUgAAAGcAAAAzCAYAAACKXhYYAAAAAXNSR0IArs4c6QAAAARnQU1BAACxjwv8YQUAAAAJcEhZcwAAFxEAABcRAcom8z8AABFISURBVHhe7VwHVBVZmi7yQ6KggPLeg+61nR07bodxtmd63O0z45mzxwm70707KtHcYk6MEQNqmwAzKuacMSHwyDlnJEsUSQKioqD2t/8tCpvwqPcQUMfjd8536lXVrf/+9//u/99bJd0cd7MR7/iG0I/o3wQuEnTecJrTuF6Pd3wDeI14oxEa4WDH4xyD5pV7eMfXzTpoXq2HZggJc+XeCS4U2rw4Wpdq8Y6vmb510Ap6Tr9rTnLnoMULw6B9vgbv+LpYDe0LtdD2fwqtiySMGzQFWdqgc6YK7/g6eBc656qh49cC7bM1Jzi30LZS1hG6pyrxjq+Bp+9C99oTaJ+uPsXtS9IR5OgMvRN3oIq6ArWP34HmsQpwRA2B2scroEPX2X1lz6rDdvtiVPZcVyp7TozKbLwSnqyEnm8z8+E055alK0jRHXpHy9ETdY6Ug/MpA3eglD9qHS6H2ck7sDp9B5ZE9luXtTlIbVi7/dSOfmvTNWX2ulIiHF/0IUJN6ru9fVey67yvB1Tb6UTmLyP1r3GozYYy+/3KY3cgufiIjuVnesyYdkgOl6Ej9Ym6h2iQ+0qg6VOKL33vYkFcPU4XPUJKXQsK7j9F8YM2st9p91rhX/EYnllNcAqvw+eX7/I2OO8SGngJ2Srlz7v2w6hH91hf9mF1WJ7UiKWJDd24TODI85S55I8yW9oHS2F1sgKL4qltUncbXbmc2synMbF+vwuuxW+uVUF6iqoA2Wn3W4/86snvlyaJr3/+AfQOl51VusZ0hf7BErRzEFFjXzE5WIy/+FchoLwZT579hN6g+elPSCURt6Q34mvfSmjtJ3tkk9nu2Bcj62vkmQo8fa66Dw+yx+2+3c0GI/P34/MVQsveg/V/99EzRFc9hntKI0ZfvsPbZFTWX6/pQ6SJOOhsE52XneGmqciYdgyi4DEasCDuKsLwIyU4XfBQcLtvYLoGVzTj2yuV0N5zm++nI7kdRVgUXSe0FkdhYysG+xRDZ68SO2T7ozPlaGp9LrTuG1pJrAtFD3mb3M5C6O/r3qfa5J8tgcHJRjqWnuPOiawxXWGwtwgG3kUUqELYkjApNU8EF/sPf71eydvn+xIo2dPGeJqt6uKvN+6C217QyQ6jBgXw45NleNBP4rSjtvkZvvOjPr2696k2vW/D8Hg9iVR8jtueryeEXT0Y7C6E7s4CDN5b2KtAqYtTuU3gPPOhv5sGSH21U4Ou/e58OdSoaC9wIuc+b2tQBzu8LRLs4xOl/S4OAyvTf7pCZc4zD4Zd+lVJmnyGR++x3xd6LQyD0c58cFtz4R6nXnnpDRqePMOHR4uh5ZEH1o9hB7I+t6fUCy3VQy2tC7Y+RdDxokB1sKVJgfvkWPGAiMNQ2tQK6X7qlwnUoV9R7iqA0aFaGOwquCC6XRaD7rZcyL0LUfXoqeCKONhMZ20ZWW0Ww9qYWnA/3oLRdhKnAyUeubCkTCq53yq0VB/TAqjMbOpsU2tbDj45chsPWgZGHAb32Lpu/fbIHfkw9qmmIwmjarssih+zYX9d9U6n6uFTLA2rxldHb8N2bz7e8y7Ahz6F+I9TJZhJATuW1YgK2l63o7C+BRY7ciHZmgNjz9xO5DZmY/zVl9tdKYofQmfLLRiSwO32tLdk49NDRSrF8c1vwt8ulcHuWgWm3ayEe3QNAsmeOsiseYzBXrkYpGQ8L+jB7uXBZF8VjLzyL75UKesE9yx4JYiXNJYg487SO8DqDGhTYCWbsqFH1CVhteic2eA2ZEG2Mw/T/e4guvwRptKRW58FE5rVJltvvaAxUZPaXsq9L1jvHZqpdH1+sJD3w4QCxWxqb8zCZzRRVImzNqoG3Ip03lfmG7cuE9o0hu9JsDpa/MXAYjD6cBHfvuN4OpHGarr3Loy3kTBuxRIhwn3AmgycoVkvBubYN0dpR+eWDmMSxWRzdxoT9SlIbMCmHa51bae7IRMfUuY1PBYPhhjcwqrArc14YVNnfSY+21+gUpzNMSQOTbCO/hjSeLhV6VgQWCm06hkTLpdBwz2z0/MvSNlsursSxltu+XLzY/SF6PYRFPBTmQ1C9z2Dlamxx2nbuiYdWkSjjSTCj1lKaUQCGPdwn1udhsUqAsHWMrHlLK2qGSZky5D6YTb11mXg37zzVYtDZYxbldbNJ116ftTuXDTRBkYMCwOoGqxO7/a8KQk8eGcF/b51uX8yph2rUuFJM0odtNJb5dG0enx7mHYi7lQeVqZCl4JtvD4DgzeoJmtnuC4dcVT2xHAo5R4qRDYLTLg/HKXSRn0zu5I1afh8b65KcbZEVVNZS+nml/7adIzwuoVK2pWJYamC3tdozJ2fz4SZVxk7+o562V1ZT9BekQrH8yVC9+rhGUUnuvQhlpOzo/fS7oSCo7E8BYNYsCj4Zu7kdBeyazo0sN8fKsBPIlnRQhPgKwq0X574mrQ7robvk9mVuJE4u3NUixNJ4iwjcbr4pU1+fe2dp/IzkivLHOqz7dm2cZp7kDDrs3xt+jVjBBi5pUK+KQNljS2CC73D46fPEVH8AIv9yvFLjyxoLU2G/koK2tq0btSke3tixbM0vvwhNF2TsIwCIYaShhZIN2aA+c/6+2LnLdXihNNa9Y+kF/6Y0qSSUCZxS5JwIKFWaNUznM4XQ3tZsvB8OoZsLYHZukzfYdOuDhLC2b8wX50KLQqG642X/3DYjhrabu+KqcaorSQSDXiwWwqYfUYjCqBsfTpKKahi2BxG7zHz4/HbPTl4JpZihAmnaPdEwR60PBlfblctjnswlaVZsfx4NZYk8s99sDkTnpFVQouewXz5d8rOQSSOOVWIIZuLmUBXh7klDYwwDOarUmC6IhmG1OnZtHuCK31DJa0XLpdKIPlHIkzI9hASSWtxIhxOFwktlINVld9703sLBc6M/EqpEH8HuZhxD3rUhz4J9KVXNh6oWNATyh5iU0gldkdX40zqPQTl30ctTSh1kFHZzI/DlCbZ0I23mX/XLBcGGAhhHBgMoeANJRrRIM3p6BNXLbjTd2yhQOgvToDpsiRI6OibKf65JqfqMSzZZFmaBK2F8fAKvyvcUY6G5qf4aBPtHhfE40sqqarE6QtWUtnWXpgAi/VFLE7Xpf22XRbBUAoco8XyJJi4JkB/UTycqVwU1PbPR9CVfmXgZsfgEwpi0xPxsrOLyovO/DjeHwmJM25/LsQLG7Dgcgk4lxh8tTVzwMQpqHkM+WqaNKvzMXR58nVuoNaYrhhKGdNOi6WUPSSQ7rxYyFclw/VKKTIrxbe9qvCI1oEP1qRg3sVi4YpyMBH+TGJImDjkh+nieMhXJqFQxSSJKLjP+/sFiT8Q4jxufY5x3jmQLMuBxbKUawO6xnSFhWs8upNK0cI46M6JwXAK1IRDeTibXIsqFe8BPcEj6A4UOeJfIXLpxdJiSQKMF8TCnIRh5GZGY2+keGlrefYcn29Mw0frUvtdnEYqm/ZH8iFxzaYJk3Rj6MxQQyFsrwYWi+MgRrOFsdCbHQ2DuTH4YFUSJh7KxWHakVX3QqiG5mf8DBRD4K16jKBMYX2aU59DFsXCckk8Vl0rFVr0DDdqM5J8609xgnIa8M3WdOgvIWEWx/u9cmEYLCkQ6tCCOHheDCQuUdAnjlyZiC0B5fxXg/4A26nVPWxFQnETogvv8yysaVbr7wuSSprw642p/EzvC8ruPcGllDqMP5CDIZTBhouzYLkozv+1CMNgSU4wWglHQwq88ayoTteU0YSyiZsSjhWXxdeSV4En9CI870whKlW8SEcWNGL5pWJsuFH6guuvl8LlRAHG7cjCv65I5MevPzOK1t9sEibez9JugLfLYrCaH4N2mpEoU47kYey2dEimR8BoZiSGzo1+cb8jhxH1poXj2y1pwtBfL0JzG1SKs5HE4CYGY9CMiG40+CESZrNpUlJ1GM6EWRB303Jh2usThsGKgj+MaPJDBD5dmcCvDYwHIyoxhkrFEJdI6E0OgwEJYUSDMCayI7tmOD0cp2JVv12/Cjyn8se+y4nBw78cOpNDYTU3SilZHKxdM0mgWH+z2X7GQoheH4bRbGGUkNM7A8uFYbSBrSeReY3YdL0EUw7m4M+e6Rjnkc4fZx3LQ1B27/4G4HXD078Mus6h/Hi7cU4UrJdkwmpOTMAbIQzDsFmRMKUM+GxZPOrV/JTxzwrPmySOUwjYmLvSelEGrGZHKcwmviHCMAx3iYA+ObwzoEwYwqtFcjHtyugdRwz3HrRSuya00MLfF3jeLIWeYzDYmH9mJKQL0zHMJUJhPsnXSAjLmwHzKaEYvSIejWr+9U1/ounxM3zqGgvbOZH4rx9TMHlfNpafLcC6S0VYc6EIsw7n4L+3peGLZbRznBGGxKKX+7uDdnj6kTgOQRg+M1xgBKQL0jBsZpTiF2+aMAyGDsFYfqZAcL//8FCNvxFQpNdh8KQQmNN6Z+IUDGOa1UZdaEzXzSaHQN8uCJuv9m3b7kW7NcnEIFiT0NYzwiGbl0bHKMX70xQmQjg6QeYU9I3MIXiTzDHomswx+LzcUbFSahfwkXB74GE1NRQjaebOOZSDxELxTyzqoLapBe4Xi1BwV/U3uUW0qTCwU8B6OgVLBU1JpLHuSfSy+vIvvV43SiCZ0NafbG4qEyhImTByuyvvyZ1DA+TOYY/ljkFxMifFLpmj4oDcMTiPrrXYTgrzHPFHvz7+2ZMakE6jrSXNTIOJgbAmof6XysixsDsorW1W+UW4Iyrrn+BgcDlGzYvExO3pwtWe8ZT9c7RrDMwp6MwHVWQ+smN+Hz7EegeWQe/vgZDPSYZ0eniIjWOoqRCGF3jfXiG3mRRWZjspIkdqHzJm2Lh9nT502kwO+x+byREtcseQq2PGqPGfcfQFUhKkncMoACY0k02JH7iE4y8bk+FKs9snqBz+KbVIvX0fabSAMyYX3sf1pGp4XCuG084MjJobCeOJChhMCMTYNYmYdSAbLiIc70ElZUoI8ef+VdHCORh/2pCk1J46/AP5ZTkjEdIpoSHKSxk0pI6BAfJJYdVmfzxuLHMMnEFCZMkdA5PkTkFZlE0RUjv/EdLx135lOzUOMofAZcKDAwMpBagrrUkkSwoEE8mQgs2O5rSQDnUKgoXAoY5BdE0BE8o4I2rDrrFgy6aGYAjdMxgfIEpjlqld+lVFZnsw+aLMnmoGYui0BMgpY0ZMjFO6XbZ1DhhtOzUWUju/v7NzuYPiHK0zEXI7/6+tHfz/k0paLK0/Kfw9x4A9VOYa3/9e+XrVL5CycqGSwbCepJzsnvJn3izauCRBNiUsVD7h+mBh6N1A68pquVPw/fY2JM5pmYO/D3+TQOee1KaR/bZxDPy1zWTahjsE/I6/ORCQUYDfdtr8wIQJERWGQeoQeIZKWaZwylHZ2kfZ8oiyJ5GyJM7GObxObh+wmN37Fyd/mdwh8BFxCt94ICBzDsLbSyYMlbLJoeHSyf5mwpB7RNuOLLCQExZ6ypTDcqeQRJmDYqnNpAhQKZvDNyS8Z68YSTu5VhvHIL4EDgiUD+rtoM2MBEidgyOk36kWhoFlAe3UfpJPULzPnztSJtkH7uN/Oyk8KYPSR31/jv+rTpm9//+xsiaf6DeKnQ8IaBeCt5G20yljnEMiVJWyjqCttRVlSjOVsx3sXOYQcJHK3Hn2+xeToowogxpk9oot7JyESiPx4rnvz/38/6rpb9CMoMG8XbSdHs+EUauUdQVlxDxe2Ekhf6My9hupc8gY4RaJF/CZjX3ATBun4F1tm4GgXwm3BgY0A6iWvj1kW2GWMcPtL5kLQ+w1ZA5B25kdG+eQnbZ2/p+y7LO0C7CQOYf+1sY57LrN5Kin1g4BdkLzgYOyAf6zkoJGmRMcOqIfPvtTSRvLNgNE0LtNPb/Fdgpm9i/Z2Af+Umg2gOC4/wehc3iB2rujPgAAAABJRU5ErkJggg==;" parent="s6-0-9MNlUgVhO18XEdk-1" vertex="1">
          <mxGeometry x="409" y="1373.0899999999997" width="47" height="23.27" as="geometry" />
        </mxCell>
        <mxCell id="waSIGoQwlQna2YlyMDtl-1" value="&lt;font style=&quot;font-size: 13px;&quot;&gt;BTP&lt;/font&gt;" style="text;html=1;strokeColor=none;fillColor=none;align=left;verticalAlign=middle;whiteSpace=wrap;rounded=0;fontSize=10;" parent="s6-0-9MNlUgVhO18XEdk-1" vertex="1">
          <mxGeometry x="456" y="1373.72" width="106" height="22" as="geometry" />
        </mxCell>
      </root>
    </mxGraphModel>
  </diagram>
</mxfile>
